<svg width="217" height="195" viewBox="0 0 217 195" fill="none" xmlns="http://www.w3.org/2000/svg">
<path d="M16.9352 113.035L35.4252 136.845L47.3553 152.315L60.4853 164.815C60.4853 164.815 69.4352 166.005 69.4352 164.215C69.4352 162.425 65.8553 137.425 65.8553 137.425L104.025 116.595L116.545 112.425C116.545 112.425 149.945 182.075 150.545 184.425C151.145 186.775 164.255 186.805 164.255 186.805L166.645 172.515L165.455 133.225L158.885 90.9548L157.095 83.2148L195.275 43.9248L212.565 20.7048L203.015 8.80481L188.695 4.63477L171.405 14.1648L127.275 40.9548L101.625 36.1948L74.7853 28.4548L27.6652 16.5548L21.1053 10.5548L9.76529 14.1248C9.76529 14.1248 6.76523 22.4648 8.57523 23.6548C10.3852 24.8448 34.8252 44.5948 34.8252 44.5948L76.5752 77.9348L80.7553 84.4848L62.2253 104.705L47.3052 115.425L27.0253 111.855L16.2853 110.665L16.9352 113.035Z" fill="white"/>
<path d="M109.815 118.685C101.325 124.105 93.3852 129.935 84.7652 134.465C80.6152 136.635 76.7651 139.745 75.4551 144.415C74.5051 147.795 74.9951 151.355 75.3551 154.785C76.0751 161.785 76.5651 172.275 68.9151 175.785C62.9151 178.545 58.7051 174.315 54.9151 169.785C52.8102 167.27 50.9044 164.595 49.2151 161.785C47.6951 159.245 46.4651 156.155 43.7551 154.645C41.8551 153.565 39.4252 154.855 37.6452 155.645C32.0752 158.025 24.4251 156.135 23.4651 149.395C22.8251 144.935 26.6751 141.955 26.6651 137.715C26.6651 134.205 24.5051 131.715 22.3051 129.245C19.3051 125.845 15.8451 122.805 12.8251 119.425C9.6051 115.765 8.35513 111.675 10.6051 107.115C15.7751 96.7048 31.4451 103.045 39.3251 106.285C45.5851 108.845 50.0652 107.495 54.4052 102.835C60.5252 96.3347 66.9251 90.1147 73.1951 83.7747C73.5687 83.3063 73.9032 82.808 74.1951 82.2847C70.6151 79.4847 66.9951 76.6747 63.3751 73.9047C44.3751 59.3247 25.2851 44.8347 6.37515 30.1547C-2.57485 23.2147 -1.99491 15.2547 7.44509 9.00472C13.8751 4.75472 20.7851 4.22476 27.9551 6.48476C55.1551 15.0848 82.4851 23.3048 109.375 32.6648C119.215 36.0848 126.305 35.0347 134.915 29.0947C148.695 19.6047 163.625 11.7047 178.465 3.89473C183.667 1.36386 189.371 0.0344203 195.155 0.00471836C211.025 -0.305282 221.215 14.7147 214.275 28.9447C210.051 37.2875 204.559 44.9249 197.995 51.5847C188.515 61.4047 177.905 70.1447 167.575 79.0947C164.505 81.7747 163.105 84.0148 163.815 88.4248C168.005 115.255 171.815 142.165 175.605 169.055C176.725 177.055 175.675 184.545 168.905 190.125C160.315 197.205 150.035 195.595 144.745 185.855C138.285 173.675 132.275 161.175 125.955 148.935C121.485 140.215 116.895 131.555 112.335 122.875C111.635 121.515 110.815 120.305 109.815 118.685ZM61.3051 159.515C61.4995 159.557 61.7007 159.557 61.8952 159.515C62.0894 159.477 62.2734 159.399 62.4351 159.285C62.7065 159.072 62.9283 158.802 63.0851 158.495C63.2408 158.184 63.3261 157.842 63.3351 157.495C63.4851 155.495 62.6951 153.395 62.3351 151.495C61.804 148.92 61.4069 146.32 61.1452 143.705C60.7452 138.705 61.6651 133.575 66.2151 130.705C90.1451 115.755 114.345 101.175 137.785 85.5647C158.324 72.0704 177.168 56.16 193.915 38.1748C197.699 34.0191 200.856 29.3329 203.285 24.2647C206.135 18.3347 202.485 12.5147 195.885 12.2647C185.595 11.9147 176.395 17.4748 168.145 22.9248C158.975 28.9248 149.355 34.3648 140.495 40.8748L139.935 41.2948L139.675 41.4948L138.565 42.3447L137.755 42.9748C119.275 57.3448 102.465 73.8847 85.2051 89.7647C75.5951 98.6047 66.5251 108.035 57.2051 117.195C52.7351 121.565 47.9451 123.065 41.8251 120.285C38.8251 118.915 35.8951 117.365 32.8251 116.205C31.2035 115.48 29.467 115.047 27.6951 114.925C27.1008 114.855 26.5013 115 26.0052 115.335C24.5152 116.925 27.6051 119.055 28.6851 119.865C32.237 122.528 35.5588 125.485 38.6151 128.705C43.991 134.489 48.928 140.666 53.3852 147.185C55.6746 150.501 57.6817 154.003 59.3852 157.655C59.5774 158.084 59.8565 158.469 60.2051 158.785C60.5218 159.094 60.8953 159.338 61.3051 159.505V159.515ZM113.695 47.1947C111.315 46.3047 109.825 45.7348 108.325 45.2448C95.5851 41.1314 82.8451 37.0314 70.1051 32.9447C61.2851 30.1447 52.4752 27.3148 43.6452 24.5448C39.2318 23.1581 34.8118 21.7881 30.3852 20.4348C26.6552 19.3048 16.7952 15.1648 14.2852 20.4348C14.2201 20.5429 14.1919 20.6693 14.2051 20.7948C14.2522 20.9309 14.3438 21.0472 14.4651 21.1248C16.3351 22.6448 18.2552 24.1247 20.1352 25.5847C40.1352 41.0447 60.0852 56.5848 80.1352 71.8548C81.3952 72.8548 84.5451 73.1747 85.5051 72.3247C94.8251 64.3247 103.895 55.9648 113.645 47.1748L113.695 47.1947ZM151.625 91.0947C149.245 92.7247 147.895 93.6248 146.575 94.5548C139.415 99.6048 132.365 104.865 125.025 109.645C121.635 111.855 121.215 113.965 123.025 117.305C126.545 123.845 129.805 130.525 133.285 137.075C140.665 150.975 148.102 164.845 155.595 178.685C156.485 180.395 158.225 181.365 160.065 180.395C162.065 179.325 162.605 176.165 162.845 174.145C163.145 171.171 163.081 168.173 162.655 165.215C162.075 160.755 161.405 156.285 160.755 151.755C159.422 142.608 158.088 133.465 156.755 124.325L153.995 105.945C153.295 101.245 152.535 96.6047 151.655 91.0647L151.625 91.0947Z" fill="#08274D"/>
</svg>
