<svg width="292" height="175" viewBox="0 0 292 175" fill="none" xmlns="http://www.w3.org/2000/svg">
<path d="M110.185 11.0296L88.8354 25.8596L73.5155 56.4396L51.6954 69.8796L20.5854 82.3896L8.04541 110.19L10.8354 131.51L16.4055 142.17L50.7655 144.95L140.835 146.29L150.585 143.51L163.125 119.88L180.766 125.88L186.335 144.88H233.225L239.725 127.27L250.405 114.27L261.545 122.15L266.185 136.98L287.075 127.71L286.146 98.5197L278.715 77.6696L261.535 67.0096L249.465 41.0596C249.465 41.0596 239.256 19.7396 237.396 19.2796C235.536 18.8196 212.325 5.37964 212.325 5.37964L171.935 8.28964L137.575 8.74963L110.185 11.0296Z" fill="white"/>
<path d="M245.916 120.54L237.916 135.37L239.776 154.53C239.776 154.53 254.016 157 255.866 157C257.716 157 266.236 137.08 266.236 137.08L258.966 119.31L245.916 120.54Z" fill="#3284D4"/>
<path d="M163.115 119.86L150.575 143.49L167.285 161.26L182.766 156.93L187.095 137.78L168.525 124.19L163.115 119.86Z" fill="#3284D4"/>
<path d="M22.4355 108.91C22.5055 100.48 28.7255 93.9096 36.3655 94.0796C43.2355 94.2596 48.4954 100.51 48.4354 108.47C48.3754 117.15 42.6955 123.69 35.3755 123.47C27.8355 123.29 22.4355 117.15 22.4355 108.91Z" fill="#08274D"/>
<path d="M131.185 108.8C131.095 117.14 125.615 123.53 118.405 123.56C110.925 123.56 105.055 117.35 105.105 109.39C105.165 100.77 111.015 94.3897 118.735 94.4397C126.075 94.5197 131.275 100.52 131.185 108.8Z" fill="#08274D"/>
<path d="M15.7454 147.18C16.9254 147.45 18.1154 147.69 19.2654 148.05C20.3127 148.408 21.2556 149.019 22.0108 149.828C22.7659 150.637 23.3102 151.62 23.5955 152.69C26.7055 161.54 31.9555 168.79 41.5955 171.83C57.0655 176.71 70.6955 169.98 78.7355 153.29C96.5955 153.29 114.525 153.29 132.455 153.38C133.08 153.463 133.676 153.692 134.195 154.05C134.71 154.408 135.132 154.885 135.425 155.44C140.425 170.34 151.785 174.9 166.275 174.44C178.275 174.08 187.925 166.2 190.415 154.57C190.695 153.25 190.915 151.93 191.185 150.45C199.245 149.97 206.976 149.66 214.646 148.96C217.346 148.71 218.366 149.58 219.396 151.96C225.246 165.42 235.325 171.33 249.105 169.66C261.595 168.15 269.265 160.53 271.785 146.54C272.285 143.76 273.535 142.83 275.875 141.91C292.875 135.17 292.425 113.19 290.385 98.1397C289.429 90.2026 286.695 82.5835 282.385 75.8497C278.265 69.6197 272.765 64.9697 266.495 61.0297C264.66 59.8843 263.307 58.1053 262.695 56.0297C260.125 44.7897 256.196 34.1797 249.256 24.8397C244.171 17.9007 237.662 12.1285 230.165 7.90971C221.555 3.14971 211.465 1.9697 201.805 1.2497C190.625 0.409704 179.365 0.24971 168.155 0.0997102C147.935 -0.0902898 126.485 -0.67029 107.155 6.09971C89.1554 12.4097 76.3755 26.9097 68.8655 44.0997C67.4265 47.4 66.1745 50.7786 65.1155 54.2197C64.2655 56.9997 62.9655 58.3697 59.8855 59.0797C43.2555 62.9497 28.0254 69.6097 15.5554 81.7597C7.32092 89.7658 2.03476 100.32 0.555433 111.71C-0.0040139 116.103 -0.14122 120.54 0.145521 124.96C0.445521 130.03 1.22535 135.19 4.21535 139.44C6.97331 143.353 11.0794 146.109 15.7454 147.18ZM202.665 14.3997C225.515 15.2197 246.245 33.6697 248.795 56.1097H173.165C177.435 45.3997 181.335 35.3697 185.435 25.4197C190.155 13.9397 190.225 13.9597 202.675 14.4097L202.665 14.3997ZM78.8355 54.0097C78.9905 53.2998 79.1943 52.6015 79.4454 51.9197C79.6454 51.3797 79.8655 50.8397 80.0755 50.2897C80.5755 48.9897 81.1654 47.7097 81.7954 46.4697C83.2628 43.6014 84.9794 40.8675 86.9254 38.2997C87.9454 36.9664 89.0155 35.6331 90.1355 34.2997C96.6855 26.8397 104.896 20.6297 114.386 17.5597C127.846 13.2097 144.055 13.9897 157.985 13.7997C162.575 13.7397 165.925 13.6797 176.305 13.8997L175.865 14.9697L171.115 26.9697L163.965 44.9697L160.405 53.9697C159.405 56.5097 157.095 56.7497 154.585 56.7997L78.3255 56.9497C78.3255 56.9497 78.6254 55.0197 78.6554 54.8897C78.6954 54.5697 78.7555 54.2897 78.8355 54.0097ZM177.835 144.25C177.565 149.82 173.975 158.04 166.985 156.37C162.735 155.37 160.796 150.84 160.136 146.92C159.366 143.022 159.734 138.984 161.195 135.29C162.485 132.38 165.196 129.88 168.516 130.01C170.013 130.103 171.466 130.563 172.744 131.349C174.022 132.136 175.087 133.224 175.845 134.52C177.423 137.521 178.114 140.91 177.835 144.29V144.25ZM257.125 147.46C255.265 150.56 251.865 152.29 248.305 151.01C245.415 150.01 243.855 147.35 243.025 144.52C241.585 139.7 241.746 133.77 244.636 129.52C246.356 126.98 249.455 125.42 252.485 126.52C256.855 128.03 258.665 133.46 258.985 138.22C259.316 141.421 258.656 144.646 257.095 147.46H257.125ZM278.685 118.05C278.638 120.266 278.091 122.444 277.085 124.42C276.073 126.38 274.635 128.089 272.875 129.42C273.065 129.26 269.005 121.96 268.595 121.23C264.755 114.37 257.595 108.23 249.365 108.23C238.895 108.23 234.205 118.03 231.295 126.61C231.065 127.31 228.415 136.41 228.295 136.4L192.235 137.97C191.855 137.97 190.925 132.97 190.825 132.55C190.511 131.085 190.103 129.642 189.605 128.23C189.379 127.61 189.122 126.993 188.835 126.38C184.945 118.04 176.315 110.99 166.665 111.92C162.974 112.286 159.494 113.812 156.725 116.28C153.875 118.83 152.145 122.64 150.655 126.09C149.175 129.623 147.909 133.243 146.865 136.93C146.005 139.86 145.225 141.52 141.815 141.42C104.735 140.3 67.6555 139.57 30.5955 138.1C14.8055 137.49 10.7855 131.78 12.5955 115.64C14.1555 101.64 21.6955 91.3797 32.8555 83.3497C46.1555 73.7997 61.2555 69.9697 77.3555 69.7997C132.355 69.2497 187.456 68.8697 242.506 68.3797C262.246 68.1897 277.265 82.2097 278.625 102.67C278.917 107.795 278.927 112.933 278.655 118.06L278.685 118.05Z" fill="#08274D"/>
</svg>
