<svg width="293" height="329" viewBox="0 0 293 329" fill="none" xmlns="http://www.w3.org/2000/svg">
<path d="M24.29 12.12C24.29 12.12 15.6199 56.73 17.6199 57.34C19.6199 57.95 22.29 308.52 22.29 308.52L33.6199 319.52L193.62 320.74L263.95 317.99L282.12 313.1L288.95 281.93L287.62 198.51V26.17L269.62 6L234.95 7.83002L38.9499 10.27L24.29 12.12Z" fill="white"/>
<path d="M183.129 134.586C183.129 134.586 200.836 161.496 201.642 163.806C202.448 166.115 213.718 205.331 213.718 205.331L209.689 242.237L170.246 263H134.821V228.392L145.286 198.403L146.898 181.489C146.898 181.489 138.045 175.341 135.627 175.341C133.21 175.341 117.114 172.263 117.114 172.263L109.066 148.421L113.095 130.737L102.63 114.593L97 105.367L122.765 82.2948L154.161 60.7625L172.674 63.0717L201.652 40L215.341 46.1478L225 65.3709V81.5151C225 81.5151 213.729 96.1298 212.118 98.429C210.506 100.728 192.798 115.343 192.798 115.343L183.129 134.586Z" fill="#3284D4"/>
<path d="M159.37 55.947C174.106 57.0743 185.897 50.7691 191.631 34.9962C193.338 30.3072 197.105 27.2644 202.35 27.015C207.824 26.7456 211.227 30.1476 213.298 34.6071C216.22 41.1564 221.282 46.6183 227.722 50.1705C234.528 54.0015 236.932 59.6083 235.683 67.6694C232.77 86.5351 223.008 101.241 208.324 113.422C205.202 116.056 201.83 118.52 198.718 121.224C192.599 126.541 191.787 129.903 195.742 136.857C199.27 143.062 203.308 149.008 207.294 154.954C222.217 177.222 226.494 201.665 223.122 227.524C221.707 238.368 214.724 246.06 205.316 251.468C198.687 255.289 191.496 258.252 184.503 261.444C176.031 265.255 167.363 268.637 158.985 272.618C148.141 277.756 131.688 274.384 125.413 264.417C122.145 259.239 122.561 252.765 123.248 246.988C124.018 240.463 124.913 233.929 125.33 227.364C125.683 221.079 126.641 214.634 130.699 209.466C133.841 205.753 136.627 201.776 139.025 197.584C142.844 190.401 139.431 184.166 131.126 182.619C127.976 182.096 124.79 181.795 121.593 181.721C104.308 180.913 97.4081 165.15 101.654 152.39C103.049 148.21 104.37 143.99 106.077 139.92C107.95 135.44 106.462 132.357 102.903 129.325C99.3438 126.292 95.6805 123.109 93.2141 119.348C88.7079 112.364 88.7392 104.643 94.5879 98.5169C106.462 86.0961 118.784 74.0544 131.366 62.2921C136.964 56.8648 143.833 55.8372 159.37 55.947ZM202.35 50.809C199.416 54.1911 196.554 58.1019 193.067 61.4041C182.525 71.3807 169.194 73.0667 155.249 72.1389C147.6 71.6301 141.866 74.3437 136.85 79.8009C130.117 87.1337 123.394 94.6161 115.703 100.971C104.412 110.289 106.15 110.11 115.849 119.009C124.57 126.99 126.401 134.772 121.791 145.477C120.23 148.788 118.889 152.19 117.774 155.663C115.859 162.447 116.869 163.644 123.935 165.091C129.773 166.298 135.809 167.186 141.283 169.321C153.948 174.309 160.14 186.44 155.957 198.911C153.979 204.797 150.108 210.155 146.674 215.502C143.24 220.85 142.511 228.741 141.949 234.837C141.481 240.184 141.408 245.023 140.909 250.38C140.638 253.473 139.951 259.908 145.071 260.127C148.141 260.257 151.534 258.132 154.271 257.005C158.527 255.319 162.367 253.174 166.655 251.537C174.918 248.395 183.15 245.202 191.298 241.82C199.447 238.438 206.346 233.041 207.117 223.862C208.574 206.453 206.857 189.254 198.698 173.401C194.212 164.691 187.947 156.83 182.744 148.46C171.744 130.701 174.356 118.909 190.955 106.009C203.443 96.2922 215.14 85.6272 218.262 69.4452C218.44 68.1417 218.336 66.8171 217.956 65.5538C217.576 64.2905 216.93 63.1157 216.056 62.1025C211.893 58.0221 207.086 54.64 202.35 50.809Z" fill="#08274D"/>
<path d="M131.14 304.13C129.409 304.054 127.723 303.559 126.225 302.688C124.727 301.817 123.463 300.596 122.54 299.13C119.82 294.8 121.96 290.13 126.04 287.75C128.426 286.38 131 285.369 133.68 284.75C136.68 284.04 139.84 283.75 142.68 285.12C144.067 285.792 145.236 286.842 146.052 288.15C146.868 289.457 147.297 290.969 147.29 292.51C147.29 296.3 144.35 299.38 141.36 301.34C138.342 303.344 134.758 304.322 131.14 304.13Z" fill="#08274D"/>
<path d="M57.78 44H8.21997C3.68019 44 0 47.6802 0 52.22V52.61C0 57.1498 3.68019 60.83 8.21997 60.83H57.78C62.3197 60.83 66 57.1498 66 52.61V52.22C66 47.6802 62.3197 44 57.78 44Z" fill="#08274D"/>
<path d="M57.78 100H8.21997C3.68019 100 0 103.68 0 108.22V108.61C0 113.15 3.68019 116.83 8.21997 116.83H57.78C62.3197 116.83 66 113.15 66 108.61V108.22C66 103.68 62.3197 100 57.78 100Z" fill="#08274D"/>
<path d="M57.78 156H8.21997C3.68019 156 0 159.68 0 164.22V164.61C0 169.15 3.68019 172.83 8.21997 172.83H57.78C62.3197 172.83 66 169.15 66 164.61V164.22C66 159.68 62.3197 156 57.78 156Z" fill="#08274D"/>
<path d="M57.78 212H8.21997C3.68019 212 0 215.68 0 220.22V220.61C0 225.15 3.68019 228.83 8.21997 228.83H57.78C62.3197 228.83 66 225.15 66 220.61V220.22C66 215.68 62.3197 212 57.78 212Z" fill="#08274D"/>
<path d="M57.78 268H8.21997C3.68019 268 0 271.68 0 276.22V276.61C0 281.15 3.68019 284.83 8.21997 284.83H57.78C62.3197 284.83 66 281.15 66 276.61V276.22C66 271.68 62.3197 268 57.78 268Z" fill="#08274D"/>
<path d="M263.58 7H42.3301C30.0638 7 20.1201 16.9438 20.1201 29.21V299.8C20.1201 312.066 30.0638 322.01 42.3301 322.01H263.58C275.846 322.01 285.79 312.066 285.79 299.8V29.21C285.79 16.9438 275.846 7 263.58 7Z" stroke="#08274D" stroke-width="14" stroke-miterlimit="10"/>
<path d="M52.04 8.34009V322.67" stroke="#08274D" stroke-width="14" stroke-miterlimit="10"/>
</svg>
