<svg width="295" height="358" viewBox="0 0 295 358" fill="none" xmlns="http://www.w3.org/2000/svg">
<path d="M26.2898 12.67C26.2898 12.67 17.6199 61.34 19.6199 62C21.6199 62.66 24.2898 336 24.2898 336L35.6199 348L195.62 349.33L265.95 346.33L284.12 341L290.95 307L289.62 216V28L271.62 6L236.95 8L40.9498 10.67L26.2898 12.67Z" fill="white"/>
<path d="M184.63 150.01C184.63 150.01 199.29 173.34 199.96 175.34C200.63 177.34 209.96 211.34 209.96 211.34L206.63 243.34L173.96 261.34H144.63V231.34L153.3 205.34L154.63 190.67C154.63 190.67 147.3 185.34 145.3 185.34C143.3 185.34 129.96 182.67 129.96 182.67L123.29 162L126.62 146.67L117.95 132.67L113.28 124.67L134.61 104.67L160.61 86L175.94 88L199.94 68L211.27 73.33L219.27 90V104C219.27 104 209.94 116.67 208.6 118.67C207.26 120.67 192.6 133.34 192.6 133.34L184.63 150.01Z" fill="#3284D4"/>
<path d="M164.81 81.5999C177.08 82.5999 186.9 77.0999 191.66 63.4399C192.235 61.4935 193.406 59.7763 195.008 58.5297C196.61 57.2831 198.562 56.5697 200.59 56.4899C205.15 56.2499 207.98 59.2099 209.7 63.0799C212.13 68.7674 216.341 73.512 221.7 76.5999C227.36 79.9299 229.37 84.7999 228.33 91.7999C225.96 108.21 217.79 120.95 205.56 131.54C202.92 133.83 200.15 135.97 197.56 138.32C192.47 142.94 191.79 145.86 195.08 151.9C198.02 157.29 201.38 162.45 204.7 167.62C217.13 186.96 220.7 208.19 217.88 230.62C216.7 240.04 210.88 246.73 203.05 251.44C197.53 254.76 191.54 257.33 185.69 260.08C178.64 263.39 171.41 266.33 164.44 269.78C155.44 274.25 141.71 271.32 136.44 262.66C133.72 258.16 134.07 252.53 134.64 247.52C135.29 241.85 136.03 236.18 136.34 230.52C136.64 225.06 137.43 219.46 140.81 214.97C143.422 211.741 145.738 208.284 147.73 204.64C150.91 198.4 148.06 192.98 141.15 191.64C138.526 191.185 135.872 190.924 133.21 190.86C118.82 190.16 113.07 176.47 116.6 165.38C117.76 161.75 118.86 158.08 120.28 154.55C121.84 150.66 120.6 147.98 117.63 145.35C114.66 142.72 111.63 139.95 109.56 136.64C105.81 130.57 105.83 123.86 110.7 118.55C120.59 107.76 130.85 97.2999 141.33 87.0799C146.16 82.3999 151.86 81.4999 164.81 81.5999ZM200.6 77.1399C198.16 80.0799 195.77 83.4699 192.87 86.3499C184.09 95.0399 172.99 96.4799 161.37 95.6799C155 95.2399 150.23 97.5899 146.05 102.34C140.44 108.71 134.84 115.21 128.44 120.73C119.04 128.82 120.44 128.67 128.56 136.4C135.82 143.4 137.34 150.09 133.56 159.4C132.243 162.262 131.107 165.205 130.16 168.21C128.57 174.1 129.41 175.13 135.29 176.4C140.15 177.45 145.18 178.22 149.74 180.08C160.28 184.37 165.44 194.95 161.96 205.78C160.32 210.89 157.09 215.55 154.23 220.19C151.37 224.83 150.74 231.69 150.3 236.99C149.91 241.64 149.85 245.84 149.47 250.49C149.25 253.18 148.67 258.77 152.98 258.95C155.54 259.07 158.36 257.18 160.64 256.24C164.19 254.77 167.38 252.91 170.95 251.49C177.83 248.76 184.68 245.98 191.47 243.05C198.26 240.12 204 235.43 204.65 227.42C205.87 212.3 204.44 197.35 197.65 183.58C193.91 176.01 188.65 169.19 184.37 161.9C175.21 146.47 177.37 136.23 191.21 125.02C201.63 116.57 211.35 107.32 213.96 93.2599C214.087 92.1282 213.98 90.9825 213.647 89.8937C213.313 88.8048 212.759 87.7961 212.02 86.9299C208.58 83.4099 204.55 80.4599 200.6 77.1399Z" fill="#08274D"/>
<path d="M136.96 302C135.459 301.931 133.997 301.5 132.7 300.742C131.402 299.984 130.308 298.923 129.51 297.65C127.15 293.9 129.01 289.88 132.51 287.78C134.582 286.602 136.816 285.736 139.14 285.21C141.71 284.6 144.47 284.31 146.92 285.53C148.124 286.112 149.139 287.022 149.847 288.157C150.555 289.291 150.927 290.603 150.92 291.94C150.92 295.23 148.37 297.94 145.78 299.59C143.174 301.316 140.082 302.161 136.96 302Z" fill="#08274D"/>
<path d="M57.78 156.01H8.22003C3.68025 156.01 0 159.69 0 164.23V164.62C0 169.16 3.68025 172.84 8.22003 172.84H57.78C62.3198 172.84 66 169.16 66 164.62V164.23C66 159.69 62.3198 156.01 57.78 156.01Z" fill="#08274D"/>
<path d="M57.78 280.13H8.22003C3.68025 280.13 0 283.81 0 288.35V288.74C0 293.28 3.68025 296.96 8.22003 296.96H57.78C62.3198 296.96 66 293.28 66 288.74V288.35C66 283.81 62.3198 280.13 57.78 280.13Z" fill="#08274D"/>
<path d="M57.78 217.13H8.22003C3.68025 217.13 0 220.81 0 225.35V225.74C0 230.28 3.68025 233.96 8.22003 233.96H57.78C62.3198 233.96 66 230.28 66 225.74V225.35C66 220.81 62.3198 217.13 57.78 217.13Z" fill="#08274D"/>
<path d="M57.78 92.1299H8.22003C3.68025 92.1299 0 95.8101 0 100.35V100.74C0 105.28 3.68025 108.96 8.22003 108.96H57.78C62.3198 108.96 66 105.28 66 100.74V100.35C66 95.8101 62.3198 92.1299 57.78 92.1299Z" fill="#08274D"/>
<path d="M57.78 41.01H8.22003C3.68025 41.01 0 44.6902 0 49.23V49.62C0 54.1598 3.68025 57.84 8.22003 57.84H57.78C62.3198 57.84 66 54.1598 66 49.62V49.23C66 44.6902 62.3198 41.01 57.78 41.01Z" fill="#08274D"/>
<path d="M265.59 7.08984H44.3399C32.0737 7.08984 22.1299 17.0336 22.1299 29.2998V328.51C22.1299 340.776 32.0737 350.72 44.3399 350.72H265.59C277.856 350.72 287.8 340.776 287.8 328.51V29.2998C287.8 17.0336 277.856 7.08984 265.59 7.08984Z" stroke="#08274D" stroke-width="14" stroke-miterlimit="10"/>
<path d="M54.04 8.33984V348.34" stroke="#08274D" stroke-width="14" stroke-miterlimit="10"/>
</svg>
