<svg width="290" height="329" viewBox="0 0 290 329" fill="none" xmlns="http://www.w3.org/2000/svg">
<path d="M25.8426 12.1143C25.8426 12.1143 17.3202 56.7294 19.2861 57.3344C21.2521 57.9395 23.8766 308.506 23.8766 308.506L35.0139 319.507L192.292 320.726L261.425 317.976L279.286 313.09L286 281.923L284.693 198.504V26.1671L266.999 6L232.919 7.83337L40.2532 10.2809L25.8426 12.1143Z" fill="white"/>
<path d="M185.128 135.706C185.128 135.706 202.002 160.689 202.773 162.83C203.544 164.972 214.284 201.38 214.284 201.38L210.451 235.647L172.846 254.922H139.086V222.797L149.065 194.955L150.596 179.246C150.596 179.246 142.159 173.539 139.857 173.539C137.555 173.539 122.2 170.679 122.2 170.679L114.522 148.545L118.355 132.129L108.375 117.138L103 108.571L127.552 87.1546L157.479 67.1622L175.125 69.3038L202.75 47.8872L215.792 53.5947L225 71.4455V86.4371C225 86.4371 214.261 100.005 212.718 102.146C211.176 104.288 194.301 117.855 194.301 117.855L185.128 135.706Z" fill="#3284D4"/>
<path d="M162.632 62.9237C176.746 63.9954 188.042 58.1013 193.517 43.4626C194.179 41.3767 195.526 39.5364 197.368 38.2005C199.21 36.8645 201.456 36.1001 203.789 36.0146C209.034 35.7574 212.289 38.9295 214.268 43.0768C217.063 49.1718 221.907 54.2563 228.071 57.5655C234.582 61.134 236.894 66.353 235.697 73.8545C232.971 91.4403 223.574 105.093 209.506 116.442C206.469 118.896 203.283 121.189 200.303 123.708C194.449 128.659 193.666 131.788 197.451 138.261C200.833 144.037 204.698 149.567 208.516 155.107C222.814 175.833 226.921 198.584 223.677 222.621C222.32 232.716 215.625 239.885 206.618 244.933C200.269 248.49 193.379 251.245 186.65 254.192C178.54 257.739 170.224 260.889 162.206 264.587C151.854 269.377 136.061 266.237 129.999 256.956C126.87 252.134 127.273 246.101 127.928 240.732C128.676 234.655 129.527 228.579 129.884 222.514C130.229 216.662 131.138 210.661 135.026 205.85C138.03 202.389 140.694 198.684 142.985 194.779C146.643 188.092 143.365 182.284 135.417 180.848C132.398 180.36 129.346 180.081 126.283 180.012C109.731 179.262 103.117 164.591 107.177 152.706C108.512 148.816 109.777 144.883 111.41 141.1C113.205 136.932 111.779 134.06 108.362 131.241C104.946 128.423 101.461 125.454 99.0795 121.907C94.766 115.402 94.789 108.212 100.391 102.521C111.767 90.958 123.569 79.7486 135.624 68.7963C141.179 63.781 147.736 62.8165 162.632 62.9237ZM203.8 58.1442C200.994 61.2948 198.245 64.9277 194.909 68.014C184.809 77.3267 172.041 78.8698 158.675 78.0125C151.348 77.541 145.861 80.0594 141.053 85.1497C134.6 91.9761 128.158 98.9418 120.797 104.857C109.984 113.527 111.594 113.366 120.935 121.65C129.286 129.152 131.034 136.321 126.686 146.298C125.171 149.365 123.865 152.519 122.775 155.739C120.946 162.051 121.912 163.155 128.676 164.516C134.266 165.641 140.052 166.466 145.298 168.46C157.421 173.057 163.357 184.395 159.354 196.001C157.467 201.477 153.752 206.471 150.462 211.444C147.172 216.416 146.448 223.767 145.942 229.447C145.493 234.43 145.424 238.931 144.987 243.914C144.734 246.797 144.067 252.788 149.024 252.981C151.969 253.109 155.213 251.084 157.836 250.076C161.919 248.501 165.588 246.508 169.695 244.986C177.609 242.061 185.488 239.081 193.298 235.941C201.109 232.801 207.711 227.775 208.459 219.192C209.862 202.988 208.217 186.967 200.407 172.21C196.105 164.098 190.055 156.789 185.131 148.977C174.595 132.442 177.08 121.468 192.999 109.455C204.985 100.399 216.166 90.4865 219.168 75.4191C219.314 74.2063 219.192 72.9785 218.808 71.8117C218.424 70.6448 217.787 69.5638 216.937 68.6356C212.98 64.8634 208.344 61.702 203.8 58.1442Z" fill="#08274D"/>
<path d="M130.843 295.488C129.106 295.417 127.414 294.973 125.912 294.194C124.411 293.415 123.144 292.323 122.221 291.014C119.49 287.156 121.642 283.022 125.693 280.862C128.091 279.65 130.676 278.759 133.366 278.218C136.341 277.591 139.535 277.293 142.37 278.547C143.764 279.146 144.938 280.083 145.758 281.249C146.577 282.416 147.008 283.765 147 285.141C147 288.524 144.049 291.312 141.051 293.009C138.035 294.785 134.457 295.653 130.843 295.488Z" fill="#08274D"/>
<path d="M56.797 158H8.08019C3.61764 158 0 161.374 0 165.535V165.893C0 170.054 3.61764 173.428 8.08019 173.428H56.797C61.2596 173.428 64.8772 170.054 64.8772 165.893V165.535C64.8772 161.374 61.2596 158 56.797 158Z" fill="#08274D"/>
<path d="M56.797 266H8.08019C3.61764 266 0 269.374 0 273.535V273.893C0 278.054 3.61764 281.428 8.08019 281.428H56.797C61.2596 281.428 64.8772 278.054 64.8772 273.893V273.535C64.8772 269.374 61.2596 266 56.797 266Z" fill="#08274D"/>
<path d="M56.797 212H8.08019C3.61764 212 0 215.374 0 219.535V219.893C0 224.054 3.61764 227.428 8.08019 227.428H56.797C61.2596 227.428 64.8772 224.054 64.8772 219.893V219.535C64.8772 215.374 61.2596 212 56.797 212Z" fill="#08274D"/>
<path d="M56.797 104H8.08019C3.61764 104 0 107.374 0 111.535V111.893C0 116.054 3.61764 119.428 8.08019 119.428H56.797C61.2596 119.428 64.8772 116.054 64.8772 111.893V111.535C64.8772 107.374 61.2596 104 56.797 104Z" fill="#08274D"/>
<path d="M56.797 50H8.08019C3.61764 50 0 53.3736 0 57.5352V57.8927C0 62.0542 3.61764 65.4278 8.08019 65.4278H56.797C61.2596 65.4278 64.8772 62.0542 64.8772 57.8927V57.5352C64.8772 53.3736 61.2596 50 56.797 50Z" fill="#08274D"/>
<path d="M261.072 6.99902H43.5856C31.528 6.99902 21.7534 16.1143 21.7534 27.3586V301.64C21.7534 312.885 31.528 322 43.5856 322H261.072C273.129 322 282.904 312.885 282.904 301.64V27.3586C282.904 16.1143 273.129 6.99902 261.072 6.99902Z" stroke="#08274D" stroke-width="14" stroke-miterlimit="10"/>
<path d="M53.1206 8.14502V319.818" stroke="#08274D" stroke-width="14" stroke-miterlimit="10"/>
</svg>
