<svg width="508" height="394" viewBox="0 0 508 394" fill="none" xmlns="http://www.w3.org/2000/svg">
<path d="M24.29 50.12C24.29 50.12 15.6199 94.73 17.6199 95.34C19.6199 95.95 22.29 346.52 22.29 346.52L33.6199 357.52L193.62 358.74L263.95 355.99L282.12 351.1L288.95 319.93L287.62 236.51V64.17L269.62 44L234.95 45.83L38.9499 48.27L24.29 50.12Z" fill="white"/>
<path d="M183.129 172.586C183.129 172.586 200.836 199.496 201.642 201.806C202.448 204.115 213.718 243.331 213.718 243.331L209.689 280.237L170.246 301H134.821V266.392L145.286 236.403L146.898 219.489C146.898 219.489 138.045 213.341 135.627 213.341C133.21 213.341 117.114 210.263 117.114 210.263L109.066 186.421L113.095 168.737L102.63 152.593L97 143.367L122.765 120.295L154.161 98.7625L172.674 101.072L201.652 78L215.341 84.1478L225 103.371V119.515C225 119.515 213.729 134.13 212.118 136.429C210.506 138.728 192.798 153.343 192.798 153.343L183.129 172.586Z" fill="#3284D4"/>
<path d="M159.37 93.947C174.106 95.0743 185.897 88.7691 191.631 72.9962C193.338 68.3072 197.105 65.2644 202.35 65.015C207.824 64.7456 211.227 68.1476 213.298 72.6071C216.22 79.1564 221.282 84.6183 227.722 88.1705C234.528 92.0015 236.932 97.6083 235.683 105.669C232.77 124.535 223.008 139.241 208.324 151.422C205.202 154.056 201.83 156.52 198.718 159.224C192.599 164.541 191.787 167.903 195.742 174.857C199.27 181.062 203.308 187.008 207.294 192.954C222.217 215.222 226.494 239.665 223.122 265.524C221.707 276.368 214.724 284.06 205.316 289.468C198.687 293.289 191.496 296.252 184.503 299.444C176.031 303.255 167.363 306.637 158.985 310.618C148.141 315.756 131.688 312.384 125.413 302.417C122.145 297.239 122.561 290.765 123.248 284.988C124.018 278.463 124.913 271.929 125.33 265.364C125.683 259.079 126.641 252.634 130.699 247.466C133.841 243.753 136.627 239.776 139.025 235.584C142.844 228.401 139.431 222.166 131.126 220.619C127.976 220.096 124.79 219.795 121.593 219.721C104.308 218.913 97.4081 203.15 101.654 190.39C103.049 186.21 104.37 181.99 106.077 177.92C107.95 173.44 106.462 170.357 102.903 167.325C99.3438 164.292 95.6805 161.109 93.2141 157.348C88.7079 150.364 88.7392 142.643 94.5879 136.517C106.462 124.096 118.784 112.054 131.366 100.292C136.964 94.8648 143.833 93.8372 159.37 93.947ZM202.35 88.809C199.416 92.1911 196.554 96.1019 193.067 99.4041C182.525 109.381 169.194 111.067 155.249 110.139C147.6 109.63 141.866 112.344 136.85 117.801C130.117 125.134 123.394 132.616 115.703 138.971C104.412 148.289 106.15 148.11 115.849 157.009C124.57 164.99 126.401 172.772 121.791 183.477C120.23 186.788 118.889 190.19 117.774 193.663C115.859 200.447 116.869 201.644 123.935 203.091C129.773 204.298 135.809 205.186 141.283 207.321C153.948 212.309 160.14 224.44 155.957 236.911C153.979 242.797 150.108 248.155 146.674 253.502C143.24 258.85 142.511 266.741 141.949 272.837C141.481 278.184 141.408 283.023 140.909 288.38C140.638 291.473 139.951 297.908 145.071 298.127C148.141 298.257 151.534 296.132 154.271 295.005C158.527 293.319 162.367 291.174 166.655 289.537C174.918 286.395 183.15 283.202 191.298 279.82C199.447 276.438 206.346 271.041 207.117 261.862C208.574 244.453 206.857 227.254 198.698 211.401C194.212 202.691 187.947 194.83 182.744 186.46C171.744 168.701 174.356 156.909 190.955 144.009C203.443 134.292 215.14 123.627 218.262 107.445C218.44 106.142 218.336 104.817 217.956 103.554C217.576 102.291 216.93 101.116 216.056 100.102C211.893 96.0221 207.086 92.64 202.35 88.809Z" fill="#08274D"/>
<path d="M131.14 342.13C129.409 342.054 127.723 341.559 126.225 340.688C124.727 339.817 123.463 338.596 122.54 337.13C119.82 332.8 121.96 328.13 126.04 325.75C128.426 324.38 131 323.369 133.68 322.75C136.68 322.04 139.84 321.75 142.68 323.12C144.067 323.792 145.236 324.842 146.052 326.15C146.868 327.457 147.297 328.969 147.29 330.51C147.29 334.3 144.35 337.38 141.36 339.34C138.342 341.344 134.758 342.322 131.14 342.13Z" fill="#08274D"/>
<path d="M57.78 82H8.21997C3.68019 82 0 85.6802 0 90.22V90.61C0 95.1498 3.68019 98.83 8.21997 98.83H57.78C62.3197 98.83 66 95.1498 66 90.61V90.22C66 85.6802 62.3197 82 57.78 82Z" fill="#08274D"/>
<path d="M57.78 138H8.21997C3.68019 138 0 141.68 0 146.22V146.61C0 151.15 3.68019 154.83 8.21997 154.83H57.78C62.3197 154.83 66 151.15 66 146.61V146.22C66 141.68 62.3197 138 57.78 138Z" fill="#08274D"/>
<path d="M57.78 194H8.21997C3.68019 194 0 197.68 0 202.22V202.61C0 207.15 3.68019 210.83 8.21997 210.83H57.78C62.3197 210.83 66 207.15 66 202.61V202.22C66 197.68 62.3197 194 57.78 194Z" fill="#08274D"/>
<path d="M57.78 250H8.21997C3.68019 250 0 253.68 0 258.22V258.61C0 263.15 3.68019 266.83 8.21997 266.83H57.78C62.3197 266.83 66 263.15 66 258.61V258.22C66 253.68 62.3197 250 57.78 250Z" fill="#08274D"/>
<path d="M57.78 306H8.21997C3.68019 306 0 309.68 0 314.22V314.61C0 319.15 3.68019 322.83 8.21997 322.83H57.78C62.3197 322.83 66 319.15 66 314.61V314.22C66 309.68 62.3197 306 57.78 306Z" fill="#08274D"/>
<path d="M263.58 45H42.3301C30.0638 45 20.1201 54.9438 20.1201 67.21V337.8C20.1201 350.066 30.0638 360.01 42.3301 360.01H263.58C275.846 360.01 285.79 350.066 285.79 337.8V67.21C285.79 54.9438 275.846 45 263.58 45Z" stroke="#08274D" stroke-width="14" stroke-miterlimit="10"/>
<path d="M52.04 46.3401V360.67" stroke="#08274D" stroke-width="14" stroke-miterlimit="10"/>
<path d="M311.05 230.345L289.69 245.175L274.37 275.755L252.55 289.195L221.44 301.705L208.9 329.505L211.69 350.825L217.26 361.485L251.62 364.265L341.69 365.655L351.44 362.875L363.98 339.245L381.62 345.245L387.19 364.245H434.08L440.58 346.635L451.26 333.635L462.4 341.515L467.04 356.345L487.93 347.075L487 317.885L479.59 297.105L462.41 286.445L450.34 260.495C450.34 260.495 440.13 239.175 438.27 238.715C436.41 238.255 413.2 224.815 413.2 224.815L372.81 227.595L338.45 228.055L311.05 230.345Z" fill="white"/>
<path d="M446.78 339.855L438.78 354.685L440.64 373.845C440.64 373.845 454.88 376.315 456.73 376.315C458.58 376.315 467.1 356.395 467.1 356.395L459.83 338.625L446.78 339.855Z" fill="#3284D4"/>
<path d="M363.98 339.175L351.44 362.805L368.15 380.575L383.63 376.245L387.96 357.095L369.39 343.505L363.98 339.175Z" fill="#3284D4"/>
<path d="M223.3 328.225C223.37 319.795 229.59 313.225 237.23 313.395C244.1 313.575 249.36 319.825 249.3 327.785C249.24 336.465 243.56 343.005 236.24 342.785C228.69 342.575 223.3 336.465 223.3 328.225Z" fill="#08274D"/>
<path d="M332.05 328.105C331.96 336.445 326.48 342.835 319.27 342.865C311.79 342.865 305.92 336.655 305.97 328.695C306.03 320.075 311.88 313.695 319.6 313.745C326.94 313.835 332.14 319.835 332.05 328.105Z" fill="#08274D"/>
<path d="M216.61 366.495C217.79 366.765 218.98 367.005 220.13 367.365C221.177 367.723 222.12 368.334 222.875 369.143C223.63 369.952 224.175 370.935 224.46 372.005C227.57 380.855 232.82 388.105 242.46 391.145C257.93 396.025 271.56 389.295 279.6 372.605C297.46 372.605 315.39 372.605 333.32 372.695C333.945 372.778 334.541 373.007 335.06 373.365C335.575 373.724 335.997 374.2 336.29 374.755C341.29 389.655 352.65 394.215 367.14 393.755C379.14 393.395 388.79 385.515 391.28 373.885C391.56 372.565 391.78 371.245 392.05 369.765C400.11 369.285 407.84 368.975 415.51 368.275C418.21 368.025 419.23 368.895 420.26 371.275C426.11 384.735 436.19 390.645 449.97 388.975C462.46 387.465 470.13 379.845 472.65 365.855C473.15 363.075 474.4 362.145 476.74 361.225C493.74 354.485 493.29 332.505 491.25 317.455C490.294 309.518 487.559 301.899 483.25 295.165C479.13 288.935 473.63 284.285 467.36 280.345C465.524 279.199 464.172 277.42 463.56 275.345C460.99 264.105 457.06 253.495 450.12 244.155C445.063 237.178 438.571 231.364 431.08 227.105C422.47 222.345 412.38 221.165 402.72 220.445C391.54 219.605 380.28 219.445 369.07 219.295C348.85 219.105 327.4 218.525 308.07 225.295C290.07 231.605 277.29 246.105 269.78 263.295C268.341 266.595 267.089 269.974 266.03 273.415C265.18 276.195 263.88 277.565 260.8 278.275C244.17 282.145 228.94 288.805 216.47 300.955C208.235 308.961 202.949 319.515 201.47 330.905C200.911 335.298 200.773 339.735 201.06 344.155C201.36 349.225 202.14 354.385 205.13 358.635C207.855 362.583 211.944 365.382 216.61 366.495ZM403.53 233.715C426.38 234.535 447.11 252.985 449.66 275.425H374.03C378.3 264.715 382.2 254.685 386.3 244.735C391.02 233.255 391.09 233.275 403.54 233.725L403.53 233.715ZM279.69 273.325C279.845 272.615 280.049 271.917 280.3 271.235C280.5 270.695 280.72 270.155 280.93 269.605C281.43 268.305 282.02 267.025 282.65 265.785C284.117 262.916 285.834 260.183 287.78 257.615C288.8 256.281 289.87 254.948 290.99 253.615C297.54 246.155 305.75 239.945 315.24 236.875C328.7 232.525 344.91 233.305 358.84 233.115C363.43 233.055 366.78 232.995 377.16 233.215L376.72 234.285L371.97 246.285L364.82 264.285L361.26 273.285C360.26 275.825 357.95 276.065 355.44 276.115L279.18 276.265C279.18 276.265 279.48 274.335 279.51 274.205C279.56 273.885 279.62 273.605 279.69 273.325ZM378.69 363.565C378.42 369.135 374.83 377.355 367.84 375.685C363.59 374.685 361.65 370.155 360.99 366.235C360.22 362.337 360.588 358.299 362.05 354.605C363.34 351.695 366.05 349.195 369.37 349.325C370.868 349.418 372.32 349.878 373.598 350.664C374.877 351.451 375.942 352.54 376.7 353.835C378.27 356.825 378.96 360.199 378.69 363.565ZM457.98 366.775C456.12 369.875 452.72 371.605 449.16 370.325C446.27 369.325 444.71 366.665 443.88 363.835C442.44 359.015 442.6 353.085 445.49 348.835C447.21 346.295 450.31 344.735 453.34 345.835C457.71 347.345 459.52 352.775 459.84 357.535C460.174 360.735 459.517 363.96 457.96 366.775H457.98ZM479.54 337.365C479.492 339.581 478.945 341.759 477.94 343.735C476.928 345.695 475.489 347.404 473.73 348.735C473.92 348.575 469.86 341.275 469.45 340.545C465.61 333.685 458.45 327.545 450.22 327.545C439.75 327.545 435.06 337.345 432.15 345.925C431.92 346.625 429.27 355.725 429.15 355.715L393.09 357.285C392.71 357.285 391.78 352.285 391.68 351.865C391.365 350.4 390.958 348.957 390.46 347.545C390.233 346.925 389.977 346.308 389.69 345.695C385.8 337.355 377.17 330.305 367.52 331.235C363.829 331.601 360.349 333.127 357.58 335.595C354.73 338.145 353 341.955 351.51 345.405C350.03 348.938 348.764 352.558 347.72 356.245C346.86 359.175 346.08 360.835 342.67 360.735C305.59 359.615 268.51 358.885 231.45 357.415C215.66 356.805 211.64 351.095 213.45 334.955C215.01 320.955 222.55 310.695 233.71 302.665C247.01 293.115 262.11 289.285 278.21 289.115C333.21 288.565 388.31 288.185 443.36 287.695C463.1 287.505 478.12 301.525 479.48 321.985C479.775 327.11 479.788 332.248 479.52 337.375L479.54 337.365Z" fill="#08274D"/>
<path d="M308.41 113.035L326.9 136.845L338.83 152.315L351.96 164.815C351.96 164.815 360.91 166.005 360.91 164.215C360.91 162.425 357.33 137.425 357.33 137.425L395.51 116.595L408.03 112.425C408.03 112.425 441.43 182.075 442.03 184.425C442.63 186.775 455.74 186.805 455.74 186.805L458.13 172.515L456.94 133.225L450.37 90.9547L448.58 83.2147L486.76 43.9247L504.05 20.7047L494.5 8.80475L480.18 4.63477L462.89 14.1647L418.76 40.9547L393.11 36.1948L366.27 28.4547L319.15 16.5547L312.59 10.5547L301.25 14.1248C301.25 14.1248 298.25 22.4647 300.06 23.6547C301.87 24.8447 326.3 44.4847 326.3 44.4847L368.05 77.8247L372.23 84.3748L353.69 104.705L338.77 115.425L318.49 111.855L307.75 110.665L308.41 113.035Z" fill="white"/>
<path d="M401.29 118.685C392.8 124.105 384.86 129.935 376.24 134.465C372.09 136.635 368.24 139.745 366.93 144.415C365.98 147.795 366.47 151.355 366.83 154.785C367.55 161.785 368.04 172.275 360.39 175.785C354.39 178.545 350.18 174.315 346.39 169.785C344.285 167.27 342.379 164.595 340.69 161.785C339.17 159.245 337.94 156.155 335.23 154.645C333.33 153.565 330.9 154.855 329.12 155.645C323.55 158.025 315.9 156.135 314.94 149.395C314.3 144.935 318.15 141.955 318.14 137.715C318.14 134.205 315.98 131.715 313.78 129.245C310.78 125.845 307.32 122.805 304.3 119.425C301.08 115.765 299.83 111.675 302.08 107.115C307.25 96.7047 322.92 103.045 330.8 106.285C337.06 108.845 341.54 107.495 345.88 102.835C352 96.3347 358.4 90.1147 364.67 83.7747C365.043 83.3063 365.378 82.8079 365.67 82.2847C362.09 79.4847 358.47 76.6747 354.85 73.9047C335.85 59.3247 316.76 44.8347 297.85 30.1547C288.9 23.2147 289.48 15.2547 298.92 9.00472C305.35 4.75472 312.26 4.2247 319.43 6.4847C346.63 15.0847 373.96 23.3047 400.85 32.6647C410.69 36.0847 417.78 35.0347 426.39 29.0947C440.17 19.6047 455.1 11.7047 469.94 3.89467C475.141 1.3638 480.845 0.0344203 486.63 0.00471836C502.5 -0.305282 512.69 14.7147 505.75 28.9447C501.526 37.2875 496.034 44.9248 489.47 51.5847C479.99 61.4047 469.38 70.1447 459.05 79.0947C455.98 81.7747 454.58 84.0147 455.29 88.4247C459.48 115.255 463.29 142.165 467.08 169.055C468.2 177.055 467.15 184.545 460.38 190.125C451.79 197.205 441.51 195.595 436.22 185.855C429.76 173.675 423.75 161.175 417.43 148.935C412.96 140.215 408.37 131.555 403.81 122.875C403.11 121.515 402.29 120.315 401.29 118.685ZM352.78 159.515C352.974 159.557 353.175 159.557 353.37 159.515C353.564 159.477 353.748 159.399 353.91 159.285C354.181 159.072 354.403 158.802 354.56 158.495C354.716 158.184 354.801 157.842 354.81 157.495C354.96 155.495 354.17 153.395 353.81 151.495C353.279 148.92 352.881 146.32 352.62 143.705C352.22 138.705 353.14 133.575 357.69 130.705C381.62 115.755 405.82 101.175 429.26 85.5647C449.798 72.0704 468.643 56.16 485.39 38.1747C489.174 34.019 492.33 29.3329 494.76 24.2647C497.61 18.3347 493.96 12.5147 487.36 12.2647C477.07 11.9147 467.87 17.4747 459.62 22.9247C450.45 28.9247 440.83 34.3647 431.97 40.8747L431.41 41.2947L431.15 41.4947L430.04 42.3447L429.23 42.9747C410.75 57.3447 393.94 73.8847 376.68 89.7647C367.07 98.6047 358 108.035 348.68 117.195C344.21 121.565 339.42 123.065 333.3 120.285C330.3 118.915 327.37 117.365 324.3 116.205C322.678 115.48 320.942 115.047 319.17 114.925C318.576 114.855 317.976 115 317.48 115.335C315.99 116.925 319.08 119.055 320.16 119.865C323.712 122.528 327.033 125.485 330.09 128.705C335.466 134.489 340.403 140.666 344.86 147.185C347.149 150.501 349.156 154.003 350.86 157.655C351.052 158.084 351.331 158.469 351.68 158.785C351.996 159.097 352.369 159.345 352.78 159.515ZM405.17 47.1947C402.79 46.3047 401.3 45.7347 399.8 45.2447C387.06 41.1314 374.32 37.0314 361.58 32.9447C352.76 30.1447 343.95 27.3147 335.12 24.5447C330.706 23.158 326.286 21.788 321.86 20.4347C318.13 19.3047 308.27 15.1647 305.76 20.4347C305.695 20.5428 305.667 20.6692 305.68 20.7947C305.727 20.9308 305.818 21.0471 305.94 21.1247C307.81 22.6447 309.73 24.1247 311.61 25.5847C331.61 41.0447 351.56 56.5847 371.61 71.8547C372.87 72.8547 376.02 73.1747 376.98 72.3247C386.3 64.3247 395.37 55.9647 405.12 47.1747L405.17 47.1947ZM443.1 91.0947C440.72 92.7247 439.37 93.6247 438.05 94.5547C430.89 99.6047 423.84 104.865 416.5 109.645C413.11 111.855 412.69 113.965 414.5 117.305C418.02 123.845 421.28 130.525 424.76 137.075C432.14 150.975 439.576 164.845 447.07 178.685C447.96 180.395 449.7 181.365 451.54 180.395C453.54 179.325 454.08 176.165 454.32 174.145C454.62 171.171 454.556 168.173 454.13 165.215C453.55 160.755 452.88 156.285 452.23 151.755C450.896 142.608 449.563 133.465 448.23 124.325L445.47 105.945C444.77 101.245 444.01 96.6047 443.13 91.0647L443.1 91.0947Z" fill="#08274D"/>
</svg>
