<svg width="267" height="217" viewBox="0 0 267 217" fill="none" xmlns="http://www.w3.org/2000/svg">
<g clip-path="url(#clip0_105_2408)">
<path d="M152.76 129.523L141.333 137.457L133.135 153.821L121.459 161.011L104.815 167.705L98.1072 182.581L99.5977 193.986L102.579 199.689L120.962 201.177L169.156 201.92L174.373 200.433L181.08 187.788L190.521 191.011L193.502 201.177H218.592L222.07 191.755L227.784 184.813L233.746 189.028L236.23 196.962L247.409 192.003L246.913 176.383L242.938 165.226L233.746 159.523L227.287 145.639C227.287 145.639 221.822 134.233 220.828 133.985C219.834 133.738 207.413 126.547 207.413 126.547L185.8 128.035L167.417 128.283L152.76 129.523Z" fill="white"/>
<path d="M13.0621 31.7509C13.0621 31.7509 8.75438 55.8852 9.74807 56.2125C10.7418 56.5397 12.0684 192.082 12.0684 192.082L17.6976 198.033L97.193 198.692L100.507 170.591L128.33 157.366L134.292 146.457L143.896 132.572V39.3477L134.953 28.4385L117.728 29.4302L20.3458 30.7542L13.0621 31.7509Z" fill="white"/>
<path d="M225.384 188.12L221.077 196.054L222.07 206.304C222.07 206.304 229.687 207.628 230.681 207.628C231.674 207.628 236.23 196.967 236.23 196.967L232.34 187.461L225.384 188.12Z" fill="#3284D4"/>
<path d="M95.2106 99.8545C95.2106 99.8545 102.494 111.423 102.827 112.415C103.16 113.407 107.796 130.267 107.796 130.267L106.141 146.135L89.9092 155.06H75.3367V140.184L79.6444 127.291L80.3052 120.017C80.3052 120.017 76.6633 117.374 75.6696 117.374C74.6759 117.374 68.048 116.05 68.048 116.05L64.7341 105.8L66.3885 98.1983L62.0809 91.256L59.7606 87.289L70.3583 77.3715L83.2763 68.1135L90.893 69.1053L102.817 59.1877L108.447 61.8308L112.421 70.097V77.0393C112.421 77.0393 107.796 83.322 107.135 84.3137C106.474 85.3055 99.1853 91.5882 99.1853 91.5882L95.2106 99.8545Z" fill="#3284D4"/>
<path d="M156.154 62.8275L166.423 76.0525L173.046 84.646L180.335 91.5883C180.335 91.5883 185.304 92.2478 185.304 91.256C185.304 90.2643 183.316 76.3798 183.316 76.3798L204.517 64.811L211.472 62.4952C211.472 62.4952 230.02 101.174 230.353 102.498C230.685 103.822 237.969 103.822 237.969 103.822L239.296 95.8875L238.635 74.069L234.988 50.5942L233.994 46.295L255.195 24.4765L264.799 11.5837L259.498 4.9737L251.548 2.65796L241.944 7.94896L217.435 22.8252L203.19 20.1822L188.285 15.883L162.116 9.27294L158.474 5.96545L152.179 7.94896C152.179 7.94896 150.524 12.5804 151.518 13.2399C152.512 13.8995 166.091 24.8087 166.091 24.8087L189.278 43.3247L191.599 46.9595L181.329 58.201L173.046 64.1515L161.783 62.168L155.821 61.5085L156.154 62.8275Z" fill="white"/>
<path d="M181.08 187.756L174.373 200.401L183.316 209.907L191.599 207.591L193.914 197.346L183.977 190.072L181.08 187.756Z" fill="#3284D4"/>
<path d="M207.736 65.964C203.021 68.974 198.614 72.212 193.824 74.7261C191.519 75.9311 189.383 77.6567 188.652 80.2502C188.126 82.1295 188.399 84.1031 188.598 86.0073C189 89.8801 189.268 95.7215 185.02 97.6802C181.692 99.2124 179.351 96.862 177.23 94.3281C176.06 92.9248 175.002 91.4327 174.065 89.8652C173.22 88.452 172.54 86.7412 171.034 85.8982C169.981 85.2982 168.629 86.0172 167.641 86.4387C164.55 87.7577 160.297 86.7114 159.766 82.9676C159.413 80.4882 161.549 78.8369 161.544 76.4815C161.544 74.5327 160.347 73.1492 159.125 71.7806C157.435 69.8913 155.538 68.2054 153.863 66.326C152.075 64.2929 151.379 62.0218 152.631 59.4879C155.503 53.706 164.203 57.2267 168.58 59.0267C172.058 60.4499 174.542 59.6961 176.957 57.1126C180.355 53.5027 183.912 50.0514 187.39 46.5257C187.591 46.2647 187.771 45.9877 187.927 45.6976C185.94 44.1405 183.927 42.5835 181.92 41.0463C171.367 32.9486 160.769 24.9055 150.266 16.7484C145.298 12.8954 145.62 8.47221 150.862 5.00109C154.43 2.64072 158.27 2.34815 162.25 3.60272C177.354 8.37799 192.533 12.945 207.463 18.1418C212.928 20.041 216.863 19.4559 221.648 16.1583C229.299 10.8871 237.592 6.49863 245.834 2.16468C248.723 0.758306 251.892 0.0193461 255.105 0.00266293C263.919 -0.170893 269.574 8.16973 265.723 16.074C263.379 20.7047 260.33 24.9451 256.685 28.6444C251.419 34.099 245.526 38.9487 239.793 43.9223C238.088 45.41 237.308 46.6546 237.706 49.1042C240.031 64.0053 242.153 78.946 244.254 93.8818C244.875 98.3099 244.294 102.485 240.533 105.584C235.763 109.517 230.054 108.624 227.118 103.214C223.531 96.4504 220.192 89.5082 216.684 82.7097C214.2 77.87 211.651 73.06 209.122 68.2401C208.745 67.5359 208.288 66.8665 207.736 65.964ZM180.797 88.6354C180.905 88.6617 181.017 88.6647 181.126 88.6442C181.234 88.6237 181.338 88.5801 181.428 88.5164C181.578 88.3972 181.701 88.2467 181.787 88.0754C181.872 87.9041 181.92 87.7161 181.925 87.5247C182.009 86.4139 181.572 85.2486 181.374 84.1676C181.11 82.7345 180.827 81.2965 180.713 79.8435C180.489 77.0716 181.001 74.2203 183.53 72.6434C196.82 64.3425 210.255 56.2448 223.277 47.5769C234.684 40.0813 245.148 31.2461 254.445 21.2608C256.546 18.9522 258.299 16.3495 259.647 13.5351C261.232 10.2425 259.204 7.00938 255.538 6.88542C249.824 6.69202 244.716 9.77637 240.135 12.8062C235.043 16.1632 229.702 19.1583 224.778 22.7733H224.753L224.44 23.0063L224.296 23.1154L223.68 23.5865L223.228 23.9336C212.963 31.9122 203.632 41.0959 194.043 49.9175C188.707 54.8266 183.669 60.0631 178.497 65.1508C176.013 67.5756 173.354 68.4087 169.956 66.8665C168.282 66.1078 166.662 65.245 164.938 64.6003C164.038 64.1988 163.074 63.9588 162.091 63.8912C161.761 63.8524 161.427 63.9333 161.152 64.1193C160.327 65.002 162.041 66.1871 162.642 66.6334C164.615 68.1126 166.46 69.7548 168.157 71.5426C171.143 74.7545 173.885 78.1839 176.36 81.8023C177.627 83.6437 178.737 85.5877 179.679 87.6139C179.785 87.8517 179.939 88.0651 180.132 88.2409C180.324 88.4166 180.551 88.5509 180.797 88.6354ZM209.888 26.2593C208.566 25.7634 207.741 25.451 206.906 25.1783C199.831 22.8923 192.761 20.6013 185.681 18.3451C180.782 16.788 175.888 15.2161 170.989 13.6789C168.538 12.9086 166.084 12.1483 163.626 11.3979C161.554 10.7681 156.079 8.47221 154.683 11.3979C154.647 11.4573 154.631 11.527 154.638 11.5962C154.664 11.6721 154.715 11.7369 154.782 11.7797C155.821 12.6227 156.889 13.426 157.932 14.2591C169.032 22.8427 180.116 31.4511 191.276 39.9553C191.976 40.4909 193.725 40.6892 194.257 40.2182C199.434 35.7553 204.467 31.1337 209.883 26.2543L209.888 26.2593ZM230.954 50.6365C229.632 51.5439 228.882 52.0398 228.147 52.5605C224.172 55.3671 220.257 58.2878 216.178 60.9408C214.295 62.1656 214.061 63.3408 215.06 65.1954C217.017 68.8252 218.826 72.5343 220.758 76.1741C224.856 83.8932 228.986 91.5958 233.15 99.2819C233.647 100.234 234.611 100.769 235.634 100.234C236.762 99.6389 237.045 97.8835 237.179 96.7628C237.346 95.1118 237.311 93.4467 237.075 91.8041C236.752 89.3247 236.379 86.8453 236.022 84.3312C235.293 79.2502 234.544 74.1724 233.776 69.0979C233.266 65.6962 232.756 62.2945 232.246 58.8928C231.858 56.2845 231.436 53.706 230.949 50.6315L230.954 50.6365Z" fill="#08274D"/>
<path d="M85.363 65.8996C91.4593 66.3955 96.3384 63.6682 98.7034 56.8945C98.9892 55.9293 99.571 55.0778 100.367 54.4596C101.163 53.8415 102.133 53.4877 103.14 53.4482C105.406 53.3292 106.812 54.7969 107.666 56.716C108.874 59.5363 110.966 61.889 113.629 63.4202C116.441 65.0715 117.439 67.4864 116.923 70.9575C115.745 79.0948 111.686 85.4123 105.61 90.6636C104.298 91.7992 102.922 92.8603 101.635 94.0256C99.1058 96.3166 98.7679 97.7645 100.403 100.76C101.863 103.432 103.533 105.991 105.182 108.555C111.358 118.145 113.132 128.672 111.731 139.795C111.144 144.466 108.253 147.783 104.362 150.119C101.62 151.765 98.6437 153.04 95.7372 154.403C92.2344 156.045 88.6422 157.503 85.1792 159.213C80.7076 161.43 73.8859 159.977 71.2675 155.683C69.9161 153.451 70.09 150.66 70.3732 148.175C70.6961 145.364 71.0638 142.552 71.2178 139.745C71.3669 137.038 71.7594 134.261 73.4387 132.034C74.7363 130.433 75.887 128.719 76.8769 126.912C78.4569 123.818 77.0409 121.13 73.6077 120.466C72.304 120.24 70.9854 120.111 69.6627 120.079C62.5131 119.732 59.6562 112.943 61.4101 107.444C61.9864 105.644 62.533 103.824 63.2385 102.074C64.0136 100.145 63.3975 98.8158 61.9218 97.5116C60.4462 96.2075 58.9408 94.8339 57.9123 93.1926C56.0491 90.1826 56.0591 86.8553 58.4787 84.2222C63.3925 78.8717 68.4902 73.6848 73.6971 68.617C76.0969 66.2963 78.9289 65.85 85.363 65.8996ZM103.145 63.688C101.933 65.1459 100.745 66.8269 99.3045 68.255C94.9422 72.5642 89.4272 73.2782 83.6539 72.8815C80.489 72.6633 78.119 73.8286 76.0422 76.184C73.2549 79.3428 70.4726 82.566 67.2927 85.3032C62.6224 89.3148 63.318 89.2404 67.3524 93.0736C70.9595 96.5447 71.7147 99.8621 69.8366 104.479C69.1822 105.898 68.618 107.357 68.1473 108.847C67.3574 111.768 67.7747 112.279 70.6961 112.909C73.1108 113.429 75.61 113.811 77.8756 114.733C83.1123 116.861 85.6761 122.107 83.947 127.477C83.1322 130.011 81.5274 132.322 80.1064 134.623C78.6854 136.924 78.3724 140.326 78.1538 142.954C77.96 145.259 77.9302 147.342 77.7414 149.648C77.6321 150.982 77.3439 153.754 79.4853 153.843C80.7573 153.903 82.1584 152.965 83.2912 152.499C85.055 151.77 86.6399 150.848 88.4137 150.144C91.832 148.79 95.2354 147.412 98.609 145.959C101.983 144.506 104.834 142.18 105.157 138.208C105.764 130.711 105.053 123.297 101.679 116.469C99.8213 112.715 97.2079 109.333 95.0813 105.718C90.5302 98.067 91.6034 92.9893 98.4798 87.4305C103.657 83.2404 108.486 78.6535 109.783 71.6815C109.841 71.1198 109.782 70.5523 109.611 70.0141C109.44 69.4759 109.161 68.9785 108.789 68.5525C107.11 66.7971 105.108 65.3343 103.145 63.688Z" fill="#08274D"/>
<path d="M71.526 175.19C70.7802 175.156 70.0538 174.942 69.4092 174.567C68.7645 174.191 68.2207 173.665 67.8245 173.033C66.6519 171.174 67.5761 169.18 69.315 168.139C70.3443 167.555 71.4543 167.126 72.6091 166.865C73.886 166.562 75.2573 166.418 76.4746 167.023C77.0728 167.312 77.5769 167.763 77.9286 168.326C78.2803 168.889 78.4652 169.539 78.462 170.202C78.462 171.833 77.195 173.177 75.9082 173.995C74.6132 174.851 73.0772 175.27 71.526 175.19Z" fill="#08274D"/>
<path d="M105.808 181.895C105.848 177.387 109.172 173.852 113.261 173.961C116.938 174.055 119.75 177.402 119.72 181.662C119.69 186.308 116.65 189.804 112.734 189.69C108.7 189.571 105.808 186.303 105.808 181.895Z" fill="#08274D"/>
<path d="M163.994 181.835C163.944 186.298 161.013 189.715 157.157 189.735C153.153 189.735 150.013 186.412 150.042 182.153C150.072 177.541 153.202 174.114 157.336 174.154C161.261 174.194 164.044 177.407 163.994 181.835Z" fill="#08274D"/>
<path d="M249.228 176.391C248.155 167.857 244.17 160.795 236.419 156.263C235.431 155.643 234.708 154.68 234.387 153.561C233.011 147.546 230.909 141.868 227.198 136.874C221.34 128.94 213.559 124.537 203.607 124.294C195.504 124.096 187.39 123.863 179.287 123.947C172.182 124.021 165.057 124.22 157.997 124.939C154.146 125.325 150.41 126.882 146.42 127.963C146.42 127.016 146.42 125.98 146.42 124.899C146.45 96.6473 146.477 68.3972 146.5 40.1489C146.517 39.1623 146.419 38.1771 146.207 37.2133C144.483 30.033 138.123 25.1486 130.308 25.1734C94.1373 25.2891 57.9686 25.4362 21.8015 25.6148C20.7283 25.5947 19.6564 25.6979 18.6068 25.9222C11.1939 27.7074 7.47748 32.9785 7.36817 41.7902V57.4549C7.34333 57.8665 7.36817 58.2781 7.36817 58.6946V85.0454C7.30855 90.1232 7.36817 95.201 7.36817 100.279V94.6208L7.44769 189.511C7.71598 195.517 12.2223 201.031 18.0404 202.404C20.4811 202.919 22.9748 203.14 25.4683 203.064C51.0393 202.955 76.6103 202.803 102.181 202.608C104.263 202.608 105.61 202.994 106.429 205.32C108.094 210.056 110.901 213.933 116.063 215.56C124.341 218.173 131.634 214.568 135.937 205.642C145.491 205.642 155.085 205.642 164.68 205.692C165.013 205.735 165.332 205.858 165.609 206.049C165.885 206.241 166.112 206.496 166.269 206.793C168.967 214.766 175.024 217.206 182.775 216.958C189.204 216.765 194.361 212.55 195.693 206.327C195.842 205.622 195.961 204.913 196.105 204.125C200.418 203.867 204.551 203.703 208.66 203.327C210.106 203.193 210.648 203.659 211.204 204.918C214.334 212.118 219.73 215.282 227.103 214.39C233.786 213.581 237.89 209.505 239.236 202.022C239.505 200.535 240.175 200.039 241.427 199.543C245.323 197.946 248.338 195.209 248.84 190.95C249.397 186.12 249.824 181.151 249.228 176.391ZM23.2573 195.422C19.0739 196.275 14.7165 193.558 14.4482 189.353C14.0905 183.784 14.3588 178.176 14.3588 172.493H23.2573V195.422ZM23.2573 164.534H14.4681V141.307H23.2573V164.534ZM23.2573 133.17H14.4681V111.059H23.2573V133.17ZM23.2573 102.837H14.4681V79.1991H23.2573V102.837ZM23.2573 71.2651H14.4681V53.9094H23.2573V71.2651ZM23.2573 45.8266H14.4681C14.4681 36.9257 16.0083 32.2992 23.2573 32.6116V45.8266ZM202.246 131.33C214.473 131.767 225.563 141.64 226.929 153.645H186.461C188.747 147.913 190.833 142.547 193.025 137.226C195.549 131.078 195.588 131.092 202.246 131.33ZM154.996 133.041C160.148 131.37 165.683 131.509 171.104 131.395C176.708 131.276 182.626 131.321 188.026 131.321L187.892 131.658L185.353 138.069L181.528 147.674L179.625 152.484C179.088 153.843 177.856 153.972 176.509 153.997L135.877 154.101C135.73 153.579 135.758 153.024 135.957 152.519C137.085 148.597 139.325 145.081 142.018 141.997C145.521 138.005 149.918 134.683 154.996 133.041ZM85.6761 195.74C67.889 195.816 50.1019 195.907 32.3148 196.012C30.6404 196.012 30.2032 195.417 30.2131 193.845L30.3622 32.5868H32.5583C40.5873 32.5025 48.6163 32.5471 56.6453 32.5223C80.807 32.4578 104.969 32.4529 129.13 32.2545C136.334 32.195 139.951 36.5885 139.897 42.782C139.653 72.4304 139.738 102.084 139.629 131.737C139.586 132.999 139.142 134.215 138.362 135.208C134.069 140.43 130.66 146.117 128.658 152.594C128.201 154.081 127.51 154.815 125.861 155.197C116.962 157.265 108.814 160.83 102.142 167.331C94.8031 174.482 92.9996 183.278 94.1026 193.017C94.192 193.821 94.3361 194.624 94.505 195.735C91.4295 195.735 88.5528 195.725 85.6761 195.74ZM189.1 200.812C188.965 203.53 187.947 206.361 185.174 207.328C184.614 207.556 184 207.621 183.404 207.518C182.807 207.414 182.252 207.146 181.801 206.743C180.935 205.909 180.315 204.854 180.007 203.694C179.014 200.267 179.51 195.993 182.581 193.736C183.967 192.745 186.059 192.472 187.241 193.93C188.33 195.398 188.962 197.154 189.06 198.978C189.115 199.588 189.128 200.201 189.1 200.812ZM231.366 202.523C230.372 204.184 228.549 205.107 226.646 204.422C225.101 203.867 224.266 202.464 223.819 200.951C223.049 198.373 223.133 195.199 224.679 192.918C225.598 191.559 227.257 190.726 228.877 191.287C231.217 192.095 232.181 195.001 232.355 197.545C232.546 199.266 232.2 201.005 231.366 202.523ZM242.903 186.789C242.878 187.975 242.586 189.14 242.049 190.197C241.511 191.255 240.742 192.178 239.798 192.898C239.902 192.814 237.726 188.907 237.507 188.515C235.455 184.845 231.605 181.573 227.217 181.573C221.613 181.573 219.104 186.814 217.549 191.406C217.425 191.778 216.009 196.647 215.944 196.642L196.652 197.48C196.448 197.48 195.951 194.812 195.896 194.579C195.727 193.796 195.508 193.024 195.241 192.269C195.118 191.938 194.98 191.607 194.828 191.277C192.746 186.814 188.131 183.045 182.968 183.541C180.994 183.737 179.132 184.553 177.652 185.872C176.127 187.235 175.203 189.273 174.403 191.123C173.611 193.015 172.934 194.952 172.376 196.925C171.914 198.492 171.501 199.379 169.673 199.325C149.834 198.725 129.995 198.333 110.161 197.55C101.714 197.222 99.5629 194.168 100.527 185.535C101.361 178.027 105.396 172.553 111.368 168.258C118.483 163.146 126.562 161.098 135.177 161.009C164.63 160.716 194.088 160.513 223.541 160.25C234.104 160.146 242.138 167.648 242.868 178.597C243.029 181.325 243.04 184.06 242.903 186.789Z" fill="#08274D"/>
<path d="M28.7078 102.798H4.08407C1.8285 102.798 0 104.623 0 106.874V107.067C0 109.318 1.8285 111.143 4.08407 111.143H28.7078C30.9633 111.143 32.7918 109.318 32.7918 107.067V106.874C32.7918 104.623 30.9633 102.798 28.7078 102.798Z" fill="#08274D"/>
<path d="M28.7078 164.351H4.08407C1.8285 164.351 0 166.176 0 168.427V168.62C0 170.871 1.8285 172.696 4.08407 172.696H28.7078C30.9633 172.696 32.7918 170.871 32.7918 168.62V168.427C32.7918 166.176 30.9633 164.351 28.7078 164.351Z" fill="#08274D"/>
<path d="M28.7078 133.111H4.08407C1.8285 133.111 0 134.936 0 137.187V137.38C0 139.631 1.8285 141.456 4.08407 141.456H28.7078C30.9633 141.456 32.7918 139.631 32.7918 137.38V137.187C32.7918 134.936 30.9633 133.111 28.7078 133.111Z" fill="#08274D"/>
<path d="M28.7078 71.1262H4.08407C1.8285 71.1262 0 72.9512 0 75.2023V75.3957C0 77.6469 1.8285 79.4718 4.08407 79.4718H28.7078C30.9633 79.4718 32.7918 77.6469 32.7918 75.3957V75.2023C32.7918 72.9512 30.9633 71.1262 28.7078 71.1262Z" fill="#08274D"/>
<path d="M28.7078 45.772H4.08407C1.8285 45.772 0 47.5969 0 49.8481V50.0415C0 52.2926 1.8285 54.1176 4.08407 54.1176H28.7078C30.9633 54.1176 32.7918 52.2926 32.7918 50.0415V49.8481C32.7918 47.5969 30.9633 45.772 28.7078 45.772Z" fill="#08274D"/>
</g>
<defs>
<clipPath id="clip0_105_2408">
<rect width="267" height="217" fill="white"/>
</clipPath>
</defs>
</svg>
