<svg width="619" height="54" viewBox="0 0 619 54" fill="none" xmlns="http://www.w3.org/2000/svg">
<path d="M33.504 4.592V2.384H44.112L43.152 45.056H35.424V31.424H28.848V32.528C28.848 40.592 23.136 44.72 15.216 44.72C7.344 44.72 1.536 40.592 1.536 32.576V14.672C1.536 6.608 7.344 2.528 15.216 2.528C22.416 2.528 27.696 5.888 28.704 12.608L35.424 12.8V4.592H33.504ZM10.272 14.528V32.768C10.272 38.864 11.232 41.12 15.216 41.12C19.2 41.12 20.112 38.864 20.112 32.768V14.528C20.112 8.432 19.2 6.128 15.216 6.128C11.232 6.128 10.272 8.432 10.272 14.528ZM28.848 16.544V27.488L35.424 27.68V16.544H28.848ZM81.2385 45.056H62.3745C55.6065 45.056 52.4385 42.464 52.4385 38C52.4385 33.536 55.6065 30.992 62.3745 30.992H81.2385C88.0065 30.992 91.1745 33.536 91.1745 38C91.1745 42.464 88.0065 45.056 81.2385 45.056ZM80.9505 2.768L80.5185 13.712H83.5905V2.384H91.2225L90.2625 28.64H83.5905V17.264H80.3745L79.9905 28.064H73.3665V4.976H71.4465V2.768H80.9505ZM70.3425 19.568V22.304C70.3425 26.096 67.4625 28.304 60.0225 28.304C52.5825 28.304 49.7025 26.048 49.7025 22.352V19.52C49.7025 15.872 52.5825 13.568 60.0225 13.568C67.4625 13.568 70.3425 15.872 70.3425 19.568ZM61.1265 38C61.1265 40.544 62.6145 41.6 66.6945 41.6H76.9185C80.9985 41.6 82.4865 40.544 82.4865 38C82.4865 35.456 80.9985 34.448 76.9185 34.448H66.6945C62.6145 34.448 61.1265 35.456 61.1265 38ZM49.2225 7.952H70.8225V11.552H49.2225V7.952ZM52.5825 2.048H67.4625V5.648H52.5825V2.048ZM57.2865 19.808V22.112C57.2865 24.032 57.7665 24.752 60.0225 24.752C62.2785 24.752 62.7585 24.032 62.7585 22.112V19.808C62.7585 17.888 62.2785 17.12 60.0225 17.12C57.7665 17.12 57.2865 17.888 57.2865 19.808ZM123.981 14.72V21.248C123.981 29.312 118.653 33.44 110.781 33.44C102.909 33.44 97.581 29.312 97.581 21.296V14.672C97.581 6.608 102.909 2.528 110.781 2.528C118.653 2.528 123.981 6.608 123.981 14.72ZM127.629 4.592V2.384H138.237L137.277 45.056H129.549V4.592H127.629ZM106.317 14.528V21.488C106.317 27.584 107.181 29.84 110.781 29.84C114.381 29.84 115.245 27.584 115.245 21.488V14.528C115.245 8.432 114.381 6.128 110.781 6.128C107.181 6.128 106.317 8.432 106.317 14.528ZM126.669 44.144H96.141V40.544H126.669V44.144ZM195.345 31.04H182.913L182.577 40.544H199.665V44.144H156.657V40.544H173.745L173.409 31.04H160.977L160.017 3.008H196.305L195.345 31.04ZM187.617 27.44V6.608H168.705V27.44H187.617ZM244.087 45.056H207.799L206.839 31.52H215.575V41.504H244.087V45.056ZM246.727 28.304H203.719V24.704H246.727V28.304ZM243.847 17.36V20.96H208.039L207.079 3.008H243.367V6.608H215.815V17.36H243.847ZM263.803 6.608V3.008H288.667L287.707 44.72H279.979V6.608H263.803ZM295.723 4.592V2.384H306.331L305.371 45.056H297.643V4.592H295.723ZM323.393 17.84H351.425V21.44H337.553L337.313 25.184H354.305V28.784H311.297V25.184H328.337L328.097 21.44H315.617L314.657 10.448H342.257V6.608H315.137V3.008H350.945L349.985 14.048H323.393V17.84ZM350.225 45.248H342.545V35.6H313.937V32.048H351.185L350.225 45.248ZM385.192 14.72V32.528C385.192 40.592 379.48 44.72 371.56 44.72C363.688 44.72 357.88 40.592 357.88 32.576V14.672C357.88 6.608 363.688 2.528 371.56 2.528C379.48 2.528 385.192 6.608 385.192 14.72ZM389.848 4.592V2.384H400.456L399.496 45.056H391.768V4.592H389.848ZM366.616 14.528V32.768C366.616 38.864 367.576 41.12 371.56 41.12C375.544 41.12 376.456 38.864 376.456 32.768V14.528C376.456 8.432 375.544 6.128 371.56 6.128C367.576 6.128 366.616 8.432 366.616 14.528ZM457.563 31.04H445.131L444.795 40.544H461.883V44.144H418.875V40.544H435.963L435.627 31.04H423.195L422.235 3.008H458.523L457.563 31.04ZM449.835 27.44V6.608H430.923V27.44H449.835ZM492.77 14.72V32.528C492.77 40.592 487.058 44.72 479.138 44.72C471.266 44.72 465.458 40.592 465.458 32.576V14.672C465.458 6.608 471.266 2.528 479.138 2.528C487.058 2.528 492.77 6.608 492.77 14.72ZM497.426 4.592V2.384H508.034L507.074 45.056H499.346V4.592H497.426ZM474.194 14.528V32.768C474.194 38.864 475.154 41.12 479.138 41.12C483.122 41.12 484.034 38.864 484.034 32.768V14.528C484.034 8.432 483.122 6.128 479.138 6.128C475.154 6.128 474.194 8.432 474.194 14.528ZM553.368 45.056H517.08L516.12 31.52H524.856V41.504H553.368V45.056ZM556.008 28.304H513V24.704H556.008V28.304ZM553.128 17.36V20.96H517.32L516.36 3.008H525.096V17.36H553.128ZM576.876 6.512V3.008H613.164L612.3 20.864H616.524V24.464H573.516V20.864H586.284L585.9 12.368H595.548L595.164 20.864H604.476V6.512H576.876ZM613.596 45.488L595.068 38.72L576.636 45.488L575.196 42.8L590.988 34.88L590.508 28.4H599.724L599.244 34.88L615.036 42.8L613.596 45.488Z" fill="black"/>
</svg>
