<svg width="927" height="270" viewBox="0 0 927 270" fill="none" xmlns="http://www.w3.org/2000/svg">
<path d="M825.988 233.111C826.464 225.3 819.195 218.501 809.752 217.925C800.309 217.349 792.268 223.214 791.791 231.026C791.315 238.837 798.584 245.636 808.027 246.212C817.47 246.788 825.511 240.923 825.988 233.111Z" fill="#0A69C4"/>
<path d="M875.06 236.104C875.536 228.293 868.267 221.494 858.824 220.918C849.381 220.342 841.34 226.207 840.863 234.019C840.387 241.83 847.656 248.629 857.099 249.205C866.542 249.781 874.583 243.916 875.06 236.104Z" fill="#0A69C4"/>
<path d="M761.105 229.149C761.582 221.338 754.313 214.539 744.87 213.963C735.427 213.387 727.385 219.252 726.909 227.064C726.433 234.875 733.702 241.674 743.145 242.25C752.588 242.826 760.629 236.961 761.105 229.149Z" fill="#0A69C4"/>
<path d="M731.806 45.9999C729.21 46.0145 726.65 46.6126 724.316 47.7499C717.585 51.1261 711.06 54.8994 704.776 59.0499C700.916 61.7099 697.776 62.1899 693.316 60.6499C681.256 56.4499 668.996 52.7599 656.796 48.9099C655.281 48.3655 653.659 48.1841 652.062 48.3803C650.464 48.5766 648.934 49.145 647.596 50.0399C643.366 52.8399 643.106 56.4199 647.116 59.5299C655.596 66.1199 664.116 72.6199 672.686 79.1599C674.306 80.3999 675.936 81.6599 677.536 82.9199C677.411 83.1545 677.267 83.3786 677.106 83.5899C674.296 86.4399 671.426 89.2299 668.676 92.1399C666.676 94.2299 664.676 94.8399 661.906 93.6899C658.366 92.2399 651.346 89.3899 649.026 94.0599C648.026 96.0599 648.576 97.9399 650.026 99.5799C651.476 101.22 652.916 102.46 654.276 103.99C655.276 105.1 656.276 106.21 656.276 107.79C656.276 109.69 654.556 111.03 654.836 113.03C655.266 116.03 658.696 116.9 661.196 115.83C661.996 115.49 663.086 114.91 663.936 115.39C665.156 116.07 665.706 117.45 666.386 118.59C667.144 119.855 668 121.058 668.946 122.19C670.656 124.19 672.546 126.14 675.236 124.9C678.666 123.32 678.446 118.6 678.126 115.47C677.833 113.934 677.833 112.356 678.126 110.82C678.48 109.83 679.033 108.923 679.753 108.155C680.472 107.388 681.341 106.777 682.306 106.36C686.176 104.36 689.736 101.71 693.546 99.2799C693.996 100.01 694.356 100.55 694.666 101.12C696.666 105.01 698.766 108.9 700.776 112.81C703.606 118.3 706.306 123.91 709.206 129.37C711.576 133.74 716.206 134.46 720.046 131.28C723.046 128.78 723.556 125.4 723.046 121.83C721.346 109.77 719.636 97.6999 717.756 85.6599C717.436 83.6599 718.066 82.6599 719.446 81.4699C724.076 77.4699 728.836 73.5399 733.086 69.1299C736.024 66.1493 738.483 62.7323 740.376 58.9999C743.486 52.6099 738.926 45.8699 731.806 45.9999Z" fill="#57A2EA"/>
<path d="M97.0662 87.5099C99.3162 84.5099 101.796 81.7799 104.066 78.8799C114.846 65.4399 120.916 50.5599 120.206 32.9999C119.936 25.4899 116.886 20.7999 110.316 18.4299C104.11 16.247 98.7826 12.1055 95.1362 6.62995C92.5862 2.92995 89.0562 0.389947 84.3362 1.52995C82.2285 2.004 80.3228 3.12753 78.8875 4.74219C77.4523 6.35685 76.5599 8.38121 76.3362 10.5299C74.0062 25.6999 64.8262 33.3499 51.8062 34.6999C38.2462 37.1099 32.4662 39.1599 28.3162 44.9999C19.3162 57.7099 10.6462 70.6199 2.40623 83.7999C-1.65377 90.2899 -0.373766 97.2999 4.72623 102.9C7.53623 105.95 11.2362 108.25 14.8562 110.42C18.4762 112.59 20.2862 115.14 19.4162 119.51C18.6162 123.51 18.1762 127.51 17.6762 131.51C16.1362 143.77 24.8162 156.94 39.9962 154.86C42.7911 154.409 45.6155 154.165 48.4462 154.13C55.9362 154.18 59.9662 159.28 57.8562 166.41C56.4805 170.602 54.7301 174.662 52.6262 178.54C49.9662 183.88 50.2262 189.88 50.9762 195.64C51.7562 201.64 52.0762 207.64 52.5062 213.71C52.8862 219.05 53.6162 224.99 57.3262 229.16C64.5162 237.16 79.4462 237.55 87.9862 231.16C94.6062 226.16 101.596 221.73 108.316 216.9C113.896 212.9 119.666 209.04 124.786 204.5C132.056 198.06 136.846 189.95 136.246 179.89C134.836 155.89 126.976 134.48 110.246 116.72C105.776 111.97 101.246 107.24 97.1362 102.19C92.5062 96.4999 92.6462 93.3199 97.0662 87.5099Z" fill="#0A69C4"/>
<path d="M74.6161 247.54C71.4861 246.65 68.3261 247.54 65.4561 248.86C62.8545 249.979 60.4319 251.475 58.2661 253.3C54.6361 256.51 53.3361 261.6 56.9061 265.46C58.1138 266.775 59.6235 267.776 61.3048 268.377C62.9861 268.978 64.7884 269.161 66.5561 268.91C70.2378 268.419 73.6653 266.761 76.3361 264.18C79.0061 261.69 81.3961 257.98 80.6761 254.18C80.3919 252.62 79.672 251.172 78.5996 250.005C77.5272 248.837 76.1462 247.996 74.6161 247.58V247.54Z" fill="#0A69C4"/>
<path d="M66.0962 148.69L80.5362 149.5L67.3662 115.08L66.0962 148.69Z" fill="#0A69C4"/>
<path d="M156.636 7.98L158.296 19.16L168.016 17.71L174.196 59.25L132.926 77.6L52.0962 75.19L67.3662 115.08L68.0962 95.69L135.596 96.94L177.006 78.2L185.386 134.56L150.756 153.44L80.5362 149.5L87.5962 167.94L154.756 171.69L188.206 153.51L198.466 222.51L237.576 216.69L210.326 0L156.636 7.98Z" fill="#0A69C4"/>
<path d="M297.796 142.42C335.696 146.02 351.436 136.16 353.266 116.84L354.586 102.9C356.376 84.0699 342.816 70.8999 304.916 67.3499C267.016 63.7999 251.236 74.0999 249.466 92.6799L248.096 107.11C246.316 125.94 259.896 138.83 297.796 142.42ZM286.856 109.56L288.006 97.8199C288.936 88.0399 291.746 84.3599 303.246 85.4499C314.746 86.5399 316.816 90.6799 315.886 100.45L314.776 112.19C313.846 121.97 311.056 125.41 299.566 124.32C288.076 123.23 285.926 119.34 286.856 109.56Z" fill="#0A69C4"/>
<path d="M404.576 166.37L308.486 157.25C274.006 153.98 256.646 165.41 254.486 188.15C252.326 210.89 267.216 225.62 301.686 228.89L397.776 238C432.256 241.27 449.646 229.6 451.776 206.86C453.906 184.12 439.006 169.64 404.576 166.37ZM407.576 202.67C406.346 215.67 398.256 220.29 377.476 218.32L325.396 213.38C304.616 211.38 297.546 205.31 298.776 192.38C300.006 179.45 308.076 175.01 328.856 176.98L380.936 181.92C401.676 183.86 408.776 189.71 407.546 202.67H407.576Z" fill="#0A69C4"/>
<path d="M272.601 5.08568L270.861 23.4233L346.661 30.6152L348.401 12.2775L272.601 5.08568Z" fill="#0A69C4"/>
<path d="M252.624 33.5295L250.884 51.8672L360.91 62.3064L362.65 43.9688L252.624 33.5295Z" fill="#0A69C4"/>
<path d="M424.906 79.4799L409.256 77.9999L416.746 22.4599L368.336 17.8599L367.266 29.1099L377.046 30.0399L365.886 147.65L399.626 150.85L406.806 96.0199L423.186 97.5699L417.686 155.52L451.676 158.75L469.256 25.4599L430.376 21.7799L424.906 79.4799Z" fill="#0A69C4"/>
<path d="M606.106 209.28L606.176 160.62L677.116 158.22L676.496 139.81L533.146 144.65L529.546 38.1199L670.446 33.36L669.826 14.95L484.256 21.22L494.006 164.4L557.576 162.26L560.936 210.8L473.556 213.75L474.176 232.16L694.106 224.74L693.486 206.33L606.106 209.28Z" fill="#0A69C4"/>
<path d="M777.356 130.88L816.826 133.2L828.456 18.98L701.446 11.53L700.366 29.92L782.996 34.77L777.356 130.88Z" fill="#0A69C4"/>
<path d="M903.676 74.5698L909.056 20.5198L854.876 17.3398L854.216 28.6098L864.016 29.1898L857.386 142.22L896.866 144.54L901.786 94.1398L924.836 95.4998L926.056 74.6598L903.676 74.5698Z" fill="#0A69C4"/>
<path d="M642.096 126.44C642.096 126.44 637.936 129.67 629.636 134.78" stroke="#57A2EA" stroke-width="10" stroke-linecap="round" stroke-linejoin="round"/>
<path d="M604.236 148.77C551.006 175.17 441.926 213.48 278.366 196.08" stroke="#57A2EA" stroke-width="10" stroke-linecap="round" stroke-linejoin="round" stroke-dasharray="29 29"/>
<path d="M264.006 194.42C259.1 193.813 254.143 193.147 249.136 192.42" stroke="#57A2EA" stroke-width="10" stroke-linecap="round" stroke-linejoin="round"/>
<path d="M712.636 218L712.466 148.84L895.366 159.74L887.006 228.42C886.678 231.099 885.341 233.552 883.268 235.279C881.194 237.007 878.54 237.88 875.846 237.72L722.646 228.59C719.941 228.437 717.397 227.254 715.536 225.285C713.674 223.316 712.637 220.709 712.636 218ZM850.006 174.76L756.006 169.16L754.006 202.16C753.924 203.554 754.117 204.95 754.576 206.269C755.034 207.588 755.748 208.803 756.677 209.846C757.606 210.888 758.732 211.737 759.989 212.343C761.247 212.95 762.612 213.302 764.006 213.38L836.846 217.72C838.24 217.802 839.637 217.609 840.955 217.15C842.274 216.692 843.49 215.978 844.532 215.049C845.575 214.12 846.423 212.994 847.03 211.737C847.636 210.479 847.988 209.114 848.066 207.72L850.006 174.76Z" fill="#0A69C4"/>
</svg>
