<svg width="927" height="270" viewBox="0 0 927 270" fill="none" xmlns="http://www.w3.org/2000/svg">
<g clip-path="url(#clip0_923_3568)">
<path d="M762.04 183.69L704.95 180.49C699.72 180.2 695.3 183.11 695.09 187V187.33C694.87 191.22 698.93 194.61 704.16 194.9L761.25 198.1C766.48 198.39 770.9 195.48 771.11 191.59V191.26C771.33 187.37 767.27 183.98 762.04 183.69Z" fill="#1E1E1E"/>
<path d="M826.221 233.138C826.697 225.327 819.433 218.528 809.995 217.952C800.557 217.377 792.521 223.242 792.044 231.054C791.568 238.865 798.832 245.664 808.27 246.24C817.707 246.815 825.744 240.949 826.221 233.138Z" fill="#1E1E1E"/>
<path d="M875.293 236.122C875.769 228.31 868.505 221.511 859.067 220.936C849.63 220.36 841.593 226.226 841.116 234.037C840.64 241.849 847.904 248.648 857.342 249.223C866.779 249.799 874.816 243.933 875.293 236.122Z" fill="#1E1E1E"/>
<path d="M761.348 229.177C761.825 221.365 754.56 214.566 745.123 213.991C735.685 213.415 727.648 219.281 727.172 227.092C726.696 234.904 733.96 241.702 743.398 242.278C752.835 242.854 760.872 236.988 761.348 229.177Z" fill="#1E1E1E"/>
<path d="M731.79 46.01C729.194 46.0245 726.634 46.6226 724.3 47.76C717.569 51.1362 711.044 54.9095 704.76 59.06C700.9 61.72 697.76 62.2 693.3 60.66C681.24 56.46 668.98 52.77 656.78 48.92C655.265 48.3755 653.644 48.1941 652.046 48.3904C650.448 48.5867 648.918 49.1551 647.58 50.05C643.35 52.85 643.09 56.43 647.1 59.54C655.58 66.13 664.1 72.63 672.67 79.17C674.29 80.41 675.92 81.67 677.52 82.93C677.395 83.1646 677.251 83.3887 677.09 83.6C674.28 86.45 671.41 89.24 668.66 92.15C666.66 94.24 664.66 94.85 661.89 93.7C658.35 92.25 651.33 89.4 649.01 94.07C648.01 96.07 648.56 97.95 650.01 99.59C651.46 101.23 652.9 102.47 654.26 104C655.26 105.11 656.26 106.22 656.26 107.8C656.26 109.7 654.54 111.04 654.82 113.04C655.25 116.04 658.68 116.91 661.18 115.84C661.98 115.5 663.07 114.92 663.92 115.4C665.14 116.08 665.69 117.46 666.37 118.6C667.129 119.865 667.985 121.068 668.93 122.2C670.64 124.2 672.53 126.15 675.22 124.91C678.65 123.33 678.43 118.61 678.11 115.48C677.817 113.944 677.817 112.366 678.11 110.83C678.464 109.84 679.018 108.933 679.737 108.166C680.456 107.398 681.325 106.787 682.29 106.37C686.16 104.37 689.72 101.72 693.53 99.29C693.98 100.02 694.34 100.56 694.65 101.13C696.65 105.02 698.75 108.91 700.76 112.82C703.59 118.31 706.29 123.92 709.19 129.38C711.56 133.75 716.19 134.47 720.03 131.29C723.03 128.79 723.54 125.41 723.03 121.84C721.33 109.78 719.62 97.71 717.74 85.67C717.42 83.67 718.05 82.67 719.43 81.48C724.06 77.48 728.82 73.55 733.07 69.14C736.013 66.154 738.476 62.7301 740.37 58.99C743.48 52.61 738.91 45.87 731.79 46.01Z" fill="#57A2EA"/>
<path d="M97.06 87.51C99.31 84.51 101.79 81.78 104.06 78.88C114.79 65.45 120.85 50.56 120.14 32.98C119.87 25.47 116.82 20.78 110.25 18.41C104.048 16.2349 98.7212 12.1043 95.07 6.63996C92.52 2.93996 88.99 0.399956 84.27 1.53996C82.165 2.01907 80.2628 3.14504 78.83 4.75996C77.3956 6.37195 76.5036 8.39374 76.28 10.54C73.96 25.72 64.7599 33.37 51.7399 34.72C38.1799 37.14 32.4 39.19 28.26 45.01C19.26 57.72 10.5901 70.63 2.35006 83.81C-1.70994 90.3 -0.429874 97.31 4.67013 102.91C7.48013 105.96 11.18 108.26 14.8 110.43C18.42 112.6 20.2301 115.15 19.3601 119.52C18.5601 123.52 18.1201 127.52 17.6201 131.52C16.0801 143.78 24.7601 156.95 39.9401 154.87C42.735 154.419 45.5593 154.175 48.3901 154.14C55.8801 154.19 59.91 159.29 57.8 166.42C56.4269 170.608 54.6799 174.665 52.58 178.54C49.92 183.88 50.1801 189.88 50.9301 195.64C51.7101 201.64 52.0299 207.64 52.4599 213.71C52.8399 219.05 53.57 224.99 57.28 229.16C64.47 237.16 79.4001 237.55 87.9401 231.16C94.5601 226.16 101.55 221.73 108.27 216.9C113.85 212.9 119.62 209.04 124.74 204.5C132.01 198.06 136.8 189.95 136.2 179.89C134.79 155.89 126.93 134.48 110.2 116.72C105.73 111.97 101.2 107.24 97.09 102.19C92.49 96.5 92.64 93.31 97.06 87.51Z" fill="#0A69C4"/>
<path d="M74.58 247.55C71.45 246.66 68.2901 247.55 65.4201 248.87C62.8185 249.989 60.3956 251.485 58.2299 253.31C54.5999 256.52 53.3 261.61 56.87 265.47C58.079 266.783 59.589 267.781 61.2699 268.38C62.9508 268.981 64.752 269.166 66.5199 268.92C70.2016 268.429 73.6291 266.771 76.3 264.19C78.97 261.7 81.3601 257.99 80.6401 254.19C80.3562 252.628 79.6348 251.178 78.56 250.01C77.4927 248.83 76.1127 247.977 74.58 247.55Z" fill="#0A69C4"/>
<path d="M66.0901 148.69L80.5301 149.5L67.3601 115.08L66.0901 148.69Z" fill="#0A69C4"/>
<path d="M156.63 7.98L158.29 19.16L168.01 17.71L174.19 59.25L132.92 77.6L52.0901 75.19L67.3601 115.08L68.0901 95.69L135.59 96.94L177 78.2L185.38 134.56L150.75 153.44L80.5301 149.5L87.5901 167.94L154.75 171.69L188.2 153.51L198.46 222.51L237.57 216.69L210.32 0L156.63 7.98Z" fill="#0A69C4"/>
<path d="M297.79 142.43C335.69 146.03 351.43 136.17 353.26 116.85L354.58 102.91C356.37 84.0799 342.81 70.9099 304.91 67.3599C267.01 63.8099 251.23 74.1099 249.46 92.6899L248.09 107.12C246.31 125.95 259.89 138.83 297.79 142.43ZM286.85 109.57L287.96 97.8299C288.89 88.0499 291.7 84.3699 303.2 85.4599C314.7 86.5499 316.77 90.6899 315.84 100.46L314.73 112.2C313.8 121.98 311.01 125.42 299.52 124.33C288.03 123.24 285.92 119.31 286.84 109.56L286.85 109.57Z" fill="#0A69C4"/>
<path d="M404.58 166.37L308.49 157.25C274.01 153.98 256.65 165.41 254.49 188.15C252.33 210.89 267.22 225.62 301.69 228.89L397.78 238.01C432.26 241.28 449.65 229.61 451.78 206.87C453.91 184.13 439.04 169.64 404.58 166.37ZM407.58 202.67C406.35 215.67 398.26 220.29 377.48 218.32L325.4 213.38C304.62 211.38 297.55 205.31 298.78 192.38C300.01 179.45 308.08 175.01 328.86 176.98L380.94 181.92C401.67 183.86 408.76 189.71 407.58 202.67Z" fill="#0A69C4"/>
<path d="M272.557 5.07381L270.817 23.4114L346.617 30.6032L348.357 12.2657L272.557 5.07381Z" fill="#0A69C4"/>
<path d="M252.58 33.5277L250.84 51.8652L360.866 62.3045L362.606 43.9669L252.58 33.5277Z" fill="#0A69C4"/>
<path d="M424.9 79.4801L409.25 78.0001L416.74 22.4601L368.33 17.8601L367.26 29.1101L377.04 30.0401L365.88 147.65L399.62 150.85L406.8 96.0201L423.18 97.5701L417.68 155.52L451.67 158.75L469.25 25.4601L430.37 21.7801L424.9 79.4801Z" fill="#0A69C4"/>
<path d="M606.1 209.28L606.17 160.62L677.11 158.22L676.49 139.81L533.14 144.65L529.54 38.1199L670.44 33.36L669.82 14.95L484.25 21.22L494 164.4L557.57 162.26L560.93 210.8L473.55 213.75L474.17 232.16L694.1 224.74L693.48 206.33L606.1 209.28Z" fill="#0A69C4"/>
<path d="M777.35 130.88L816.82 133.2L828.45 18.98L701.44 11.53L700.36 29.92L782.99 34.77L777.35 130.88Z" fill="#0A69C4"/>
<path d="M903.67 74.5701L909.05 20.5201L854.87 17.3401L854.21 28.6101L864.01 29.1901L857.38 142.22L896.86 144.54L901.78 94.1401L924.83 95.5001L926.05 74.6601L903.67 74.5701Z" fill="#0A69C4"/>
<path d="M642.08 126.44C642.08 126.44 637.92 129.67 629.62 134.78" stroke="#57A2EA" stroke-width="10" stroke-linecap="round" stroke-linejoin="round"/>
<path d="M604.23 148.77C551.01 175.18 441.91 213.48 278.36 196.08" stroke="#57A2EA" stroke-width="10" stroke-linecap="round" stroke-linejoin="round" stroke-dasharray="29 29"/>
<path d="M263.95 194.42C259.044 193.813 254.087 193.147 249.08 192.42" stroke="#0A69C4" stroke-width="10" stroke-linecap="round" stroke-linejoin="round"/>
<path d="M712.63 218.04L712.46 148.88L895.36 159.78L886.97 228.43C886.641 231.109 885.305 233.562 883.231 235.289C881.158 237.017 878.504 237.89 875.81 237.73L722.58 228.6C719.891 228.432 717.366 227.248 715.518 225.286C713.67 223.325 712.638 220.734 712.63 218.04ZM849.99 174.76L755.99 169.16L753.99 202.16C753.908 203.554 754.101 204.95 754.559 206.269C755.018 207.588 755.732 208.803 756.661 209.846C757.59 210.888 758.715 211.737 759.973 212.343C761.231 212.95 762.596 213.302 763.99 213.38L836.83 217.72C838.224 217.802 839.62 217.609 840.939 217.151C842.258 216.692 843.474 215.978 844.516 215.049C845.558 214.12 846.407 212.994 847.013 211.737C847.62 210.479 847.972 209.114 848.05 207.72L849.99 174.76Z" fill="#0A69C4"/>
</g>
<defs>
<clipPath id="clip0_923_3568">
<rect width="926.05" height="269.02" fill="white"/>
</clipPath>
</defs>
</svg>
