<svg id="레이어_6" data-name="레이어 6" xmlns="http://www.w3.org/2000/svg" viewBox="0 0 926.05 269.02"><defs><style>.cls-1{fill:#231f20;}.cls-2,.cls-3{fill:none;stroke:#000;stroke-linecap:round;stroke-linejoin:round;stroke-width:10px;}.cls-3{stroke-dasharray:29 29;}</style></defs><title>타이포</title><path d="M-2484.54,31.38l-57.09-3.2c-5.23-.29-9.65,2.62-9.86,6.51l0,.33c-.22,3.89,3.84,7.28,9.07,7.57l57.09,3.2c5.23.29,9.65-2.62,9.86-6.51l0-.33C-2475.25,35.06-2479.31,31.67-2484.54,31.38Z" transform="translate(3246.58 152.31)"/><ellipse cx="-2437.64" cy="79.78" rx="14.17" ry="17.12" transform="translate(877.89 -2205.88) rotate(-86.51)"/><ellipse cx="-2388.56" cy="82.78" rx="14.17" ry="17.12" transform="translate(920.98 -2154.09) rotate(-86.51)"/><ellipse cx="-2502.52" cy="75.82" rx="14.17" ry="17.12" transform="translate(820.92 -2274.36) rotate(-86.51)"/><path d="M-2514.79-106.3a17.32,17.32,0,0,0-7.49,1.75,190.06,190.06,0,0,0-19.54,11.3c-3.86,2.66-7,3.14-11.46,1.6-12.06-4.2-24.32-7.89-36.52-11.74a10.29,10.29,0,0,0-9.2,1.13c-4.23,2.8-4.49,6.38-.48,9.49,8.48,6.59,17,13.09,25.57,19.63,1.62,1.24,3.25,2.5,4.85,3.76a4.9,4.9,0,0,1-.43.67c-2.81,2.85-5.68,5.64-8.43,8.55-2,2.09-4,2.7-6.77,1.55-3.54-1.45-10.56-4.3-12.88.37-1,2-.45,3.88,1,5.52s2.89,2.88,4.25,4.41c1,1.11,2,2.22,2,3.8,0,1.9-1.72,3.24-1.44,5.24.43,3,3.86,3.87,6.36,2.8.8-.34,1.89-.92,2.74-.44,1.22.68,1.77,2.06,2.45,3.2a28.34,28.34,0,0,0,2.56,3.6c1.71,2,3.6,3.95,6.29,2.71,3.43-1.58,3.21-6.3,2.89-9.43a12.42,12.42,0,0,1,0-4.65,7.67,7.67,0,0,1,4.18-4.46c3.87-2,7.43-4.65,11.24-7.08.45.73.81,1.27,1.12,1.84,2,3.89,4.1,7.78,6.11,11.69,2.83,5.49,5.53,11.1,8.43,16.56,2.37,4.37,7,5.09,10.84,1.91,3-2.5,3.51-5.88,3-9.45-1.7-12.06-3.41-24.13-5.29-36.17-.32-2,.31-3,1.69-4.19,4.63-4,9.39-7.93,13.64-12.34a40.58,40.58,0,0,0,7.3-10.15C-2503.1-99.7-2507.67-106.44-2514.79-106.3Z" transform="translate(3246.58 152.31)"/><path d="M-3149.52-64.8c2.25-3,4.73-5.73,7-8.63,10.73-13.43,16.79-28.32,16.08-45.9-.27-7.51-3.32-12.2-9.89-14.57a30.33,30.33,0,0,1-15.18-11.77c-2.55-3.7-6.08-6.24-10.8-5.1a10.34,10.34,0,0,0-5.44,3.22,10.3,10.3,0,0,0-2.55,5.78c-2.32,15.18-11.52,22.83-24.54,24.18-13.56,2.42-19.34,4.47-23.48,10.29-9,12.71-17.67,25.62-25.91,38.8-4.06,6.49-2.78,13.5,2.32,19.1,2.81,3.05,6.51,5.35,10.13,7.52s5.43,4.72,4.56,9.09c-.8,4-1.24,8-1.74,12-1.54,12.26,7.14,25.43,22.32,23.35a57.6,57.6,0,0,1,8.45-.73c7.49.05,11.52,5.15,9.41,12.28A73.5,73.5,0,0,1-3194,26.23c-2.66,5.34-2.4,11.34-1.65,17.1.78,6,1.1,12,1.53,18.07.38,5.34,1.11,11.28,4.82,15.45,7.19,8,22.12,8.39,30.66,2,6.62-5,13.61-9.43,20.33-14.26,5.58-4,11.35-7.86,16.47-12.4,7.27-6.44,12.06-14.55,11.46-24.61-1.41-24-9.27-45.41-26-63.17-4.47-4.75-9-9.48-13.11-14.53C-3154.09-55.81-3153.94-59-3149.52-64.8Z" transform="translate(3246.58 152.31)"/><path d="M-3172,95.24c-3.13-.89-6.29,0-9.16,1.32a28.85,28.85,0,0,0-7.19,4.44c-3.63,3.21-4.93,8.3-1.36,12.16a11,11,0,0,0,4.4,2.91,11.07,11.07,0,0,0,5.25.54,17.38,17.38,0,0,0,9.78-4.73c2.67-2.49,5.06-6.2,4.34-10a8.39,8.39,0,0,0-2.08-4.18A8.41,8.41,0,0,0-3172,95.24Z" transform="translate(3246.58 152.31)"/><polygon points="66.09 148.69 80.53 149.5 67.36 115.08 66.09 148.69"/><polygon points="156.63 7.98 158.29 19.16 168.01 17.71 174.19 59.25 132.92 77.6 52.09 75.19 67.36 115.08 68.09 95.69 135.59 96.94 177 78.2 185.38 134.56 150.75 153.44 80.53 149.5 87.59 167.94 154.75 171.69 188.2 153.51 198.46 222.51 237.57 216.69 210.32 0 156.63 7.98"/><path d="M-2948.79-9.88c37.9,3.6,53.64-6.26,55.47-25.58L-2892-49.4c1.79-18.83-11.77-32-49.67-35.55s-53.68,6.75-55.45,25.33l-1.37,14.43C-3000.27-26.36-2986.69-13.48-2948.79-9.88Zm-10.94-32.86,1.11-11.74c.93-9.78,3.74-13.46,15.24-12.37s13.57,5.23,12.64,15l-1.11,11.74c-.93,9.78-3.72,13.22-15.21,12.13S-2960.66-33-2959.74-42.75Z" transform="translate(3246.58 152.31)"/><path d="M-2842,14.06l-96.09-9.12c-34.48-3.27-51.84,8.16-54,30.9s12.73,37.47,47.2,40.74l96.09,9.12c34.48,3.27,51.87-8.4,54-31.14S-2807.54,17.33-2842,14.06Zm3,36.3c-1.23,13-9.32,17.62-30.1,15.65l-52.08-4.94c-20.78-2-27.85-8.07-26.62-21s9.3-17.37,30.08-15.4l52.08,4.94C-2844.91,31.55-2837.82,37.4-2839,50.36Z" transform="translate(3246.58 152.31)"/><rect class="cls-1" x="-2946.18" y="-172.53" width="18.42" height="76.14" transform="translate(720.86 -2893.3) rotate(-84.58)"/><rect x="-2949.04" y="-159.65" width="18.42" height="110.52" transform="translate(688.33 -2868.91) rotate(-84.58)"/><polygon points="424.9 79.48 409.25 78 416.74 22.46 368.33 17.86 367.26 29.11 377.04 30.04 365.88 147.65 399.62 150.85 406.8 96.02 423.18 97.57 417.68 155.52 451.67 158.75 469.25 25.46 430.37 21.78 424.9 79.48"/><polygon points="606.1 209.28 606.17 160.62 677.11 158.22 676.49 139.81 533.14 144.65 529.54 38.12 670.44 33.36 669.82 14.95 484.25 21.22 494 164.4 557.57 162.26 560.93 210.8 473.55 213.75 474.17 232.16 694.1 224.74 693.48 206.33 606.1 209.28"/><polygon points="777.35 130.88 816.82 133.2 828.45 18.98 701.44 11.53 700.36 29.92 782.99 34.77 777.35 130.88"/><polygon points="903.67 74.57 909.05 20.52 854.87 17.34 854.21 28.61 864.01 29.19 857.38 142.22 896.86 144.54 901.78 94.14 924.83 95.5 926.05 74.66 903.67 74.57"/><path d="M-2519.95,76.21" transform="translate(3246.58 152.31)"/><path class="cls-2" d="M-2604.5-25.87s-4.16,3.23-12.46,8.34" transform="translate(3246.58 152.31)"/><path class="cls-3" d="M-2642.35-3.54c-53.22,26.41-162.32,64.71-325.87,47.31" transform="translate(3246.58 152.31)"/><path class="cls-2" d="M-2982.63,42.11q-7.36-.91-14.87-2" transform="translate(3246.58 152.31)"/><path d="M-2533.95,65.73l-.17-69.16,182.9,10.9-8.39,68.65a10.61,10.61,0,0,1-11.16,9.3L-2524,76.29A10.61,10.61,0,0,1-2533.95,65.73Zm137.36-43.28-94-5.6-2,33a10.61,10.61,0,0,0,10,11.22l72.84,4.34a10.61,10.61,0,0,0,11.22-10Z" transform="translate(3246.58 152.31)"/></svg>